<?xml version="1.0" standalone="no"?>
<!DOCTYPE svg PUBLIC "-//W3C//DTD SVG 20010904//EN"
 "http://www.w3.org/TR/2001/REC-SVG-20010904/DTD/svg10.dtd">
<svg version="1.0" xmlns="http://www.w3.org/2000/svg"
 width="202.000000pt" height="202.000000pt" viewBox="0 0 202.000000 202.000000"
 preserveAspectRatio="xMidYMid meet">
<metadata>
Created by potrace 1.10, written by Peter Selinger 2001-2011
</metadata>
<g transform="translate(0.000000,202.000000) scale(0.100000,-0.100000)"
fill="#000000" stroke="none">
<path d="M1070 1869 c-45 -13 -80 -17 -116 -13 -31 4 -66 1 -89 -6 -31 -10
-39 -10 -47 1 -8 11 -9 10 -4 -3 7 -23 0 -26 -61 -30 -28 -2 -49 -6 -46 -10 2
-5 0 -8 -6 -8 -21 0 -80 -62 -101 -107 -30 -64 -25 -145 12 -201 21 -31 24
-42 15 -53 -10 -11 -9 -11 4 -1 9 7 23 10 31 7 12 -5 9 -12 -13 -35 -44 -43
-40 -81 16 -138 31 -31 45 -54 45 -72 0 -15 9 -52 19 -83 l20 -57 -37 0 c-20
-1 -50 -7 -67 -15 l-30 -15 35 4 c19 2 48 -1 64 -5 37 -11 48 -3 15 10 -14 6
-18 10 -8 10 8 1 26 -11 40 -26 13 -15 16 -21 7 -14 -11 8 -18 9 -18 3 0 -12
57 -62 72 -62 13 0 4 25 -10 26 -7 1 -18 2 -24 3 -9 1 -9 4 2 11 12 8 12 11
-2 27 -20 22 -55 125 -63 184 l-7 44 33 -35 c18 -19 30 -27 26 -17 -9 24 10
22 25 -3 17 -27 31 -25 18 3 -7 15 0 10 21 -13 17 -19 29 -27 25 -17 -17 48
-16 50 10 22 27 -30 27 -30 21 -5 -6 24 -5 24 20 -5 l26 -30 -6 30 -7 30 20
-24 c22 -25 26 -41 10 -41 -5 0 -10 -7 -10 -15 0 -8 -6 -15 -12 -15 -16 0 -58
-44 -58 -59 0 -19 22 -12 27 9 3 11 14 20 25 20 10 0 17 4 14 8 -3 5 4 16 16
26 16 14 19 25 14 49 l-6 32 25 -30 c25 -31 33 -28 15 6 -6 10 -7 19 -2 19 5
0 16 -15 25 -32 l18 -33 -6 30 -5 30 25 -30 c21 -25 24 -26 18 -7 -8 30 3 28
21 -5 11 -21 15 -23 16 -10 0 27 18 11 30 -26 l10 -32 -3 33 -4 33 22 -23 c12
-13 20 -27 17 -33 -3 -5 -2 -7 3 -3 5 5 16 -10 26 -32 21 -47 31 -53 19 -11
-32 112 -109 150 -380 184 -107 14 -185 41 -173 60 3 5 1 7 -5 3 -12 -7 -52
44 -52 67 0 24 42 65 73 73 23 5 26 3 21 -10 -4 -11 -13 -15 -22 -11 -12 4
-11 1 3 -15 19 -20 19 -21 -1 -14 -18 7 -18 6 -2 -12 11 -13 14 -24 8 -35 -7
-12 -2 -23 18 -41 28 -26 83 -42 185 -53 73 -8 194 -41 226 -62 13 -9 26 -11
30 -6 3 5 14 12 24 16 17 6 24 27 9 27 -4 0 -18 -8 -32 -17 -22 -15 -23 -15
-17 0 7 18 -8 33 -18 17 -3 -5 -11 -10 -18 -10 -6 0 -4 7 6 17 13 13 19 14 29
5 16 -16 25 -15 25 3 0 8 -4 12 -9 8 -5 -3 -16 4 -24 16 -19 27 -30 26 -71 -5
-18 -14 -33 -21 -33 -16 0 13 34 42 49 42 8 0 11 6 6 18 -4 12 -3 14 5 6 12
-12 60 -7 60 7 0 5 11 4 24 -2 17 -8 29 -8 44 0 26 14 35 14 27 1 -3 -5 2 -10
12 -11 14 0 15 -2 3 -6 -21 -8 -30 -24 -30 -53 0 -17 -12 -33 -35 -50 -21 -15
-30 -29 -24 -34 5 -6 14 -3 24 10 13 17 14 17 15 2 0 -10 -5 -18 -11 -18 -8 0
-7 -5 1 -15 11 -13 16 -7 35 39 29 70 68 138 108 183 25 29 28 35 12 29 -84
-32 -138 -39 -315 -40 -154 -2 -190 -5 -217 -19 -18 -10 -33 -23 -33 -30 0 -7
-3 -8 -8 -2 -4 6 -18 10 -32 10 -23 0 -25 3 -24 50 2 100 0 95 45 95 24 0 38
-4 34 -10 -3 -6 4 -10 16 -10 22 0 22 0 4 -14 -18 -13 -18 -14 10 -10 l30 5
-30 -15 c-34 -17 -20 -21 22 -6 24 8 25 8 9 -3 -10 -6 -32 -21 -49 -32 -17
-11 -32 -27 -35 -35 -3 -11 -1 -11 9 2 25 31 90 49 205 58 120 9 240 38 315
76 46 23 81 58 123 124 21 33 43 40 40 13 -1 -7 2 -10 8 -7 12 7 39 -16 32
-27 -3 -5 0 -9 5 -9 17 0 13 27 -5 34 -9 3 -12 11 -8 18 4 7 4 10 -1 6 -9 -8
-35 15 -35 31 0 6 -14 -3 -31 -21 -22 -24 -27 -27 -19 -10 6 12 15 22 20 22 6
0 10 5 10 12 0 6 -14 -1 -32 -18 l-32 -29 18 30 17 30 -25 -28 c-14 -15 -26
-23 -26 -17 0 6 -5 8 -12 4 -7 -4 -8 -3 -4 4 9 16 1 15 -32 -2 -39 -20 -96
-31 -88 -17 4 6 16 11 27 11 16 0 19 5 14 20 -4 11 -2 20 4 20 6 0 11 -7 11
-15 0 -14 3 -14 28 -1 16 8 34 22 41 30 11 13 11 17 -2 22 -9 3 -24 18 -33 32
-13 20 -14 24 -2 15 12 -10 15 -10 15 2 0 8 -3 12 -7 10 -4 -2 -16 3 -26 11
-10 9 -13 12 -5 8 9 -5 12 -3 7 4 -4 7 -13 12 -21 12 -8 0 -17 5 -20 11 -9 13
60 2 97 -17 28 -15 58 -50 58 -70 0 -6 -14 -25 -31 -42 -17 -16 -27 -32 -22
-35 4 -3 19 10 33 29 14 18 29 34 33 34 18 0 87 -42 82 -50 -3 -5 0 -7 8 -4
14 5 37 -34 37 -63 0 -31 -53 -93 -113 -133 -64 -43 -150 -151 -140 -176 3 -9
0 -14 -7 -12 -8 2 -23 -22 -38 -57 -13 -33 -27 -67 -32 -75 -4 -8 -1 -29 7
-48 16 -38 20 -98 9 -129 -23 -68 101 43 143 128 16 32 31 53 34 46 10 -30 29
113 23 180 -5 66 -4 72 12 67 12 -4 13 -3 4 3 -9 7 -4 15 18 31 39 29 59 61
80 125 15 46 15 57 3 107 -8 30 -19 62 -24 71 -6 11 -4 21 4 27 15 13 31 4 41
-22 5 -15 9 -17 19 -7 9 9 7 16 -13 31 l-25 20 23 6 c13 4 22 14 22 25 0 12 7
19 20 19 13 0 20 -7 20 -20 0 -11 -7 -20 -15 -20 -8 0 -15 -7 -15 -15 0 -8 7
-15 15 -15 8 0 15 6 15 14 0 8 9 18 20 21 11 4 18 11 14 16 -3 6 3 13 15 16
24 6 29 33 6 33 -8 0 -15 -7 -15 -15 0 -8 -9 -15 -20 -15 -11 0 -20 7 -20 15
0 8 -9 15 -20 15 -11 0 -19 -5 -18 -12 2 -6 -5 -14 -14 -16 -11 -2 -18 2 -18
12 0 9 -8 16 -20 16 -11 0 -20 -7 -20 -15 0 -8 -7 -15 -15 -15 -8 0 -15 -7
-15 -16 0 -8 4 -13 9 -10 5 4 12 0 14 -6 3 -7 6 -3 6 10 1 29 41 32 41 2 0
-11 -6 -20 -13 -20 -7 0 -18 -9 -25 -21 -13 -21 -13 -21 -39 5 -14 14 -30 26
-35 26 -5 0 -7 4 -4 8 3 5 -8 6 -24 4 -23 -3 -39 4 -71 32 -24 20 -47 36 -51
36 -5 0 -6 5 -2 12 4 6 3 8 -3 5 -5 -3 -33 3 -62 13 -63 24 -107 24 -191 -1z
m215 -23 c28 -13 64 -36 80 -50 l30 -26 -45 17 c-25 9 -47 20 -50 23 -7 9 -40
22 -65 25 -134 21 -160 34 -70 34 54 1 81 -5 120 -23z m-297 -7 c12 0 52 2 90
3 37 1 76 -3 87 -10 18 -10 17 -12 -15 -13 -19 -1 -47 -1 -62 0 -16 1 -28 -3
-28 -9 0 -6 -5 -8 -10 -5 -6 4 -18 1 -27 -7 -10 -7 -14 -8 -10 -1 9 14 -6 11
-52 -9 l-33 -15 26 -7 c29 -7 33 -18 12 -35 -11 -10 -17 -8 -25 6 -10 17 -10
17 -11 -2 -1 -20 -1 -20 -10 0 -6 13 -9 15 -9 5 -1 -13 -2 -13 -11 0 -14 22
-12 40 5 40 8 0 15 4 15 8 0 5 11 15 25 22 37 20 24 23 -26 6 -24 -8 -45 -13
-47 -11 -2 2 -27 -10 -55 -27 -47 -27 -49 -28 -35 -7 33 50 105 83 158 72 14
-2 35 -4 48 -4z m-198 -40 c0 -5 -14 -15 -30 -21 -26 -9 -29 -12 -18 -26 11
-13 10 -14 -9 -4 -27 15 -36 15 -28 2 3 -5 -1 -10 -11 -10 -13 0 -11 -4 7 -21
23 -19 23 -20 2 -10 -27 14 -33 14 -33 1 0 -5 6 -10 14 -10 8 0 18 -5 22 -11
4 -7 0 -9 -13 -5 -11 4 -31 2 -44 -3 -22 -9 -20 -10 16 -12 38 -1 39 -2 10 -8
l-30 -7 30 -11 c26 -10 27 -12 8 -12 -33 -1 -28 -21 5 -22 l27 -1 -25 -7 -25
-7 30 -11 c24 -9 26 -12 10 -13 -11 -1 -24 -2 -28 -1 -5 1 -6 -3 -3 -8 3 -5
-1 -11 -9 -15 -8 -3 -15 -13 -14 -23 0 -14 2 -15 6 -3 3 8 11 18 17 22 16 11
64 10 71 -2 4 -6 -5 -10 -19 -10 -39 0 -31 -15 10 -18 36 -2 148 -61 194 -102
l25 -22 -37 22 c-55 32 -95 41 -171 41 -108 -1 -151 42 -150 151 1 88 53 165
134 197 32 13 59 13 59 0z m448 -5 c12 -8 20 -20 17 -25 -3 -5 1 -6 9 -3 10 4
18 -5 26 -34 10 -33 10 -44 -5 -73 -80 -155 -374 -161 -415 -8 -15 55 -33 50
-26 -8 l6 -48 -13 40 c-8 22 -12 46 -9 53 9 25 40 12 59 -25 42 -81 179 -111
290 -63 28 12 61 32 73 45 25 27 24 71 -2 69 -10 -1 -17 1 -16 5 2 20 -4 29
-19 27 -10 -2 -29 5 -42 15 -13 11 -32 19 -42 19 -30 0 -31 18 -2 23 59 9 89
6 111 -9z m-136 -26 c-7 -7 -27 -11 -45 -10 -17 2 -40 -3 -51 -11 -16 -12 -15
-13 15 -11 22 1 25 0 9 -3 -52 -10 -63 -43 -14 -43 15 0 23 4 19 10 -4 6 -11
7 -17 4 -7 -5 -8 -2 -3 5 4 7 16 10 27 8 13 -4 22 1 29 16 7 17 9 13 5 -21 -8
-79 9 -97 66 -70 l26 13 -21 29 c-11 16 -16 27 -11 23 6 -3 11 0 11 8 0 8 -7
17 -14 19 -8 3 -12 2 -9 -2 3 -5 -1 -9 -9 -9 -17 0 -15 35 3 42 18 7 72 -22
72 -39 0 -8 5 -16 12 -18 13 -5 20 -76 7 -84 -5 -3 -9 14 -9 38 -1 38 -2 41
-13 23 -6 -11 -12 -23 -12 -27 0 -5 -13 -21 -28 -38 -22 -23 -37 -30 -68 -30
-21 0 -39 5 -39 10 0 6 -18 10 -40 10 -23 0 -40 5 -40 11 0 6 -6 9 -14 6 -19
-8 -42 21 -49 63 -7 35 -6 35 11 14 10 -12 28 -26 40 -33 13 -7 21 -20 20 -29
-2 -13 6 -18 41 -20 50 -4 63 4 55 36 -5 15 -14 22 -32 22 -24 0 -25 0 -7 -20
10 -11 15 -23 12 -27 -4 -3 -7 -1 -7 6 0 7 -16 19 -35 27 -40 16 -42 24 -18
64 20 35 47 48 98 49 31 1 36 -2 27 -11z m-234 -18 c-7 -11 -15 -15 -16 -10
-3 7 -10 6 -20 -2 -13 -11 -14 -11 -7 1 6 10 4 12 -4 7 -7 -5 -10 -14 -7 -21
7 -19 -4 -26 -24 -15 -14 7 -18 6 -16 -5 1 -8 6 -18 11 -22 4 -4 5 -2 0 6 -5
9 -4 12 3 7 6 -4 9 -13 6 -21 -4 -8 -11 -12 -17 -8 -6 4 -7 1 -1 -8 4 -8 9
-20 10 -27 4 -26 25 -39 78 -51 29 -6 62 -18 72 -26 18 -13 17 -15 -16 -44
l-35 -31 45 25 c54 30 71 32 39 5 l-24 -20 39 16 c21 8 41 13 44 10 3 -3 1 -6
-4 -6 -5 0 -20 -10 -34 -21 -25 -20 -25 -20 17 0 55 27 78 27 34 0 -19 -11
-40 -27 -48 -35 -13 -12 -12 -14 1 -14 9 0 16 4 16 10 0 11 73 50 92 50 7 -1
-4 -10 -25 -21 -53 -28 -41 -34 16 -10 26 11 48 17 51 13 2 -4 -16 -16 -40
-26 -24 -10 -44 -22 -44 -26 0 -5 25 2 56 16 31 14 59 22 62 19 7 -6 8 -5 -52
-33 -62 -29 -55 -39 8 -11 26 11 55 19 64 17 33 -7 -103 -49 -159 -49 -51 -1
-62 3 -116 42 -33 24 -75 52 -93 62 -41 22 -29 41 18 28 39 -12 111 7 76 19
-10 4 -46 5 -79 2 -55 -4 -64 -2 -93 23 -25 21 -32 35 -32 62 0 76 61 141 133
143 25 0 26 -2 15 -20z m645 -40 c45 -47 52 -80 11 -54 -19 13 -22 19 -12 26
9 7 3 8 -17 5 -28 -5 -29 -4 -10 10 19 15 19 15 -9 9 -27 -7 -28 -6 -15 10 13
16 12 17 -6 10 -11 -4 -16 -4 -12 0 4 5 -3 14 -15 22 -22 12 -21 13 12 8 23
-4 47 -19 73 -46z m-167 -175 c-1 -36 -4 -65 -8 -65 -5 0 -8 29 -8 65 0 36 4
65 8 65 5 0 8 -29 8 -65z m-138 -1 c12 -8 27 -12 34 -8 6 4 8 3 5 -3 -4 -6 5
-21 18 -33 14 -13 25 -28 25 -34 0 -5 -13 2 -28 17 -23 22 -31 25 -42 14 -12
-10 -12 -9 -1 5 10 14 7 18 -23 29 -20 7 -36 17 -36 21 0 13 24 9 48 -8z m333
-71 c-5 -11 -31 -39 -57 -63 l-47 -43 2 -71 c2 -83 -23 -178 -66 -244 -26 -40
-29 -41 -37 -22 -7 16 -16 20 -33 15 -25 -6 -30 4 -11 23 9 9 6 13 -10 19 -21
8 -21 9 -2 21 17 10 18 9 13 -6 -4 -11 -3 -14 4 -7 13 13 47 125 40 132 -3 3
-11 -13 -16 -35 -6 -22 -19 -46 -28 -53 -12 -10 -14 -10 -9 -1 4 6 3 12 -3 12
-14 0 5 59 27 84 11 12 19 30 19 41 0 12 23 39 58 70 32 27 82 73 109 101 53
52 65 59 47 27z m-631 -183 c-19 -21 -30 -27 -30 -17 0 15 49 61 57 54 2 -3
-10 -19 -27 -37z m45 -5 c-15 -14 -30 -23 -34 -20 -3 4 7 18 23 31 37 32 45
24 11 -11z m45 -5 c-18 -17 -36 -28 -39 -24 -7 7 45 54 61 54 5 0 -4 -14 -22
-30z m38 -11 c-18 -15 -35 -25 -37 -23 -8 7 39 51 54 51 9 0 2 -11 -17 -28z
m290 -251 c2 -9 -4 -18 -13 -21 -9 -4 -15 -1 -15 9 0 8 -4 12 -10 9 -5 -3 -10
-2 -10 4 0 24 43 23 48 -1z" fill="#C0C0C0"/><!-- flower -->
<path d="M794 1077 c9 -68 36 -109 106 -154 35 -24 80 -46 99 -49 30 -6 33 -8
16 -15 -20 -8 -20 -8 0 -8 19 -1 20 -8 22 -133 1 -73 13 -223 27 -333 25 -201
42 -363 38 -377 -1 -5 3 -8 8 -8 13 0 13 24 0 130 -6 47 -13 105 -15 130 -3
25 -10 72 -15 105 -14 96 -22 189 -29 348 l-6 147 47 0 c26 0 49 4 53 10 3 5
13 6 23 3 10 -4 4 7 -15 28 -18 19 -39 50 -48 69 l-16 35 6 -35 c3 -19 14 -47
25 -62 12 -16 16 -28 10 -28 -9 0 -36 39 -66 95 -6 11 -20 20 -30 20 -24 0
-21 -35 7 -83 12 -22 15 -32 7 -30 -7 3 -26 31 -43 62 -34 68 -45 61 -15 -9
26 -60 1 -44 -29 19 -26 53 -26 60 1 86 17 15 19 23 10 32 -9 9 -14 4 -23 -21
-8 -21 -14 -29 -19 -21 -5 9 -9 9 -14 1 -4 -6 -3 -11 1 -11 5 0 14 -19 21 -42
7 -24 15 -50 18 -58 3 -8 -4 -4 -15 10 -11 14 -27 43 -35 65 -11 30 -15 34
-15 17 -1 -13 4 -32 10 -44 6 -11 9 -22 6 -24 -6 -6 -47 63 -47 80 0 7 -7 21
-15 32 -13 17 -13 14 0 -25 29 -85 -4 -46 -41 48 l-14 36 4 -38z m267 -124 c6
-21 16 -44 22 -51 5 -7 7 -15 5 -18 -8 -8 -46 48 -53 79 -11 42 12 33 26 -10z" fill="#C0C0C0"/><!-- stem -->
<path d="M1395 1023 c-18 -34 -64 -79 -118 -118 -21 -16 -30 -33 -36 -70 -6
-35 -9 -41 -10 -20 0 17 3 45 9 64 l10 34 -29 -27 c-15 -15 -44 -29 -64 -33
-21 -3 -37 -10 -37 -15 0 -17 28 -63 54 -87 24 -22 27 -23 43 -9 43 37 117
-49 77 -89 -12 -13 -14 -12 -14 6 0 23 -49 64 -80 66 -11 1 -28 9 -38 18 -18
17 -19 15 -21 -55 -1 -40 -5 -75 -8 -78 -3 -3 -4 33 -2 80 2 88 -17 160 -44
160 -8 0 -9 -2 -1 -8 7 -4 13 -69 17 -177 3 -93 13 -208 21 -255 11 -62 46
-368 46 -407 0 -1 7 -3 15 -3 20 0 20 -6 -15 285 -16 138 -29 266 -29 285 2
48 5 29 25 -150 9 -85 20 -158 24 -163 3 -4 3 21 -1 55 -29 238 -39 339 -39
380 l0 47 48 -26 c61 -34 72 -48 72 -98 0 -22 7 -50 15 -61 8 -12 11 -25 7
-29 -4 -5 -2 -5 5 -1 16 9 83 -24 83 -41 0 -7 7 -13 15 -13 8 0 15 -7 15 -15
0 -8 -6 -15 -14 -15 -23 0 -29 -31 -6 -37 11 -3 20 -12 20 -19 0 -8 7 -14 15
-14 8 0 15 7 15 15 0 8 -7 15 -15 15 -8 0 -15 9 -15 20 0 11 7 20 15 20 8 0
15 7 15 15 0 8 -7 15 -15 15 -8 0 -15 8 -15 18 0 14 -2 15 -10 2 -8 -13 -10
-12 -10 3 0 10 -7 20 -15 23 -8 4 -12 11 -8 17 3 6 1 7 -6 3 -15 -10 -43 13
-34 27 4 6 1 7 -6 2 -10 -6 -11 8 -6 61 4 38 9 71 11 73 2 2 8 -8 13 -23 6
-14 15 -26 21 -26 17 0 11 25 -10 38 -12 7 -18 18 -14 24 4 7 3 8 -5 4 -6 -4
-22 5 -37 23 -14 17 -30 29 -34 26 -5 -3 -12 0 -16 6 -4 7 -3 9 3 6 7 -4 9 8
6 37 -4 36 -1 47 18 65 38 36 104 61 159 61 46 0 55 -4 98 -44 87 -80 129 -87
192 -30 22 20 39 38 37 40 -2 2 -20 -5 -41 -16 -51 -26 -91 -9 -123 53 -8 16
-17 26 -20 24 -3 -3 9 -27 27 -54 24 -35 27 -43 10 -28 -12 11 -31 38 -42 60
-11 22 -32 52 -46 68 -14 15 -22 27 -18 27 4 0 21 -15 38 -32 17 -19 26 -24
20 -13 -14 27 -49 58 -59 52 -4 -3 -27 -2 -49 2 -40 7 -42 6 -59 -26z m102
-64 c-1 -3 22 -28 52 -57 30 -29 51 -52 47 -52 -4 0 -28 20 -54 44 -61 57 -89
68 -148 57 -44 -8 -51 2 -9 12 26 7 114 4 112 -4z" fill="#C0C0C0"/><!-- stem -->
<path d="M531 941 c-25 -25 -27 -58 -6 -81 14 -15 13 -18 -10 -30 -30 -16 -32
-36 -4 -43 12 -3 18 -10 14 -16 -3 -6 1 -11 9 -11 9 0 16 7 16 15 0 8 -7 15
-15 15 -23 0 -18 37 6 43 20 5 20 7 5 22 -19 19 -21 46 -4 63 19 19 37 15 89
-19 27 -17 54 -27 60 -23 7 4 9 3 6 -3 -11 -18 69 -43 131 -42 31 0 82 9 112
19 30 11 44 17 30 14 -14 -2 -41 -7 -60 -9 l-35 -5 40 13 40 14 -35 15 c-19 8
-43 25 -54 36 -14 16 -23 19 -37 12 -21 -12 -50 -14 -32 -2 6 4 -19 7 -55 8
-37 0 -95 4 -128 9 -55 7 -64 5 -83 -14z m112 -23 c32 -32 24 -31 -25 5 -16
12 -36 18 -52 15 -14 -3 -23 -1 -20 3 13 21 66 8 97 -23z m115 7 c36 -3 70 -9
75 -14 6 -6 1 -8 -14 -5 -19 5 -21 4 -9 -5 8 -6 24 -11 35 -11 17 0 17 -2 5
-10 -12 -8 -12 -10 5 -10 15 0 17 -2 6 -9 -11 -7 -11 -9 0 -13 8 -3 -4 -6 -26
-6 -44 -1 -105 15 -105 27 0 16 -36 48 -65 59 l-30 12 29 -5 c16 -4 58 -8 94
-10z" fill="#C0C0C0"/><!-- stem -->
<path d="M925 599 c6 -8 -30 -41 -36 -34 -7 6 -84 -75 -92 -98 -4 -10 -11 -16
-15 -13 -5 3 -6 -8 -4 -25 3 -24 1 -29 -14 -28 -40 4 -61 -2 -61 -16 0 -8 6
-15 13 -15 6 0 14 7 18 15 12 31 24 13 30 -42 8 -86 8 -87 20 -103 10 -13 9
-13 -7 -1 -9 8 -25 29 -33 47 -14 29 -107 119 -123 119 -16 0 -51 34 -42 40
17 10 13 25 -6 25 -14 0 -15 -2 -4 -9 8 -5 9 -11 3 -15 -12 -7 -73 4 -68 13 3
4 -4 7 -15 7 -11 0 -18 -5 -16 -11 3 -6 -14 -10 -42 -10 -69 -1 -121 -8 -121
-17 0 -12 -73 -40 -91 -35 -19 5 -21 -20 -2 -28 8 -3 21 2 29 10 9 8 20 15 26
15 19 0 79 -51 72 -61 -4 -7 -12 -5 -22 4 -10 8 -24 18 -32 22 -13 8 -13 7 0
-10 14 -17 13 -18 -7 -13 -13 4 -23 2 -23 -3 0 -5 -12 -9 -27 -9 -39 0 -22
-10 20 -12 20 -1 34 -5 31 -9 -2 -4 10 -4 28 1 30 9 31 8 14 -5 -23 -17 -9
-19 28 -5 17 6 26 6 26 0 0 -6 12 -10 28 -11 26 -1 26 -1 -7 -10 -18 -6 -31
-12 -28 -15 3 -3 22 -1 44 5 21 6 47 11 58 11 17 0 17 -2 5 -10 -8 -5 -25 -10
-37 -10 -13 0 -23 -4 -23 -9 0 -5 16 -5 38 0 65 15 91 9 33 -8 -45 -14 -61
-14 -100 -4 -25 7 -48 16 -51 20 -3 4 -31 13 -62 21 -32 7 -55 17 -52 22 4 7
-34 13 -59 9 -18 -3 -4 16 24 33 17 10 28 20 25 23 -3 3 -20 -4 -39 -16 -19
-11 -36 -19 -38 -16 -3 2 -5 -5 -6 -15 -1 -16 5 -20 33 -20 19 0 33 -4 30 -9
-3 -4 21 -14 54 -21 33 -7 60 -16 60 -20 0 -5 -9 -6 -20 -3 -11 3 -20 0 -20
-6 0 -6 -7 -11 -15 -11 -8 0 -15 -7 -15 -15 0 -23 27 -18 33 6 4 14 11 20 21
16 8 -3 18 -2 21 3 4 6 20 4 42 -5 19 -8 49 -15 65 -15 16 0 27 -4 24 -9 -6
-10 107 -23 129 -15 8 3 15 2 15 -4 0 -7 10 -7 28 -2 15 5 53 16 85 26 57 17
57 17 81 -5 13 -12 28 -21 34 -19 5 2 9 0 8 -3 -2 -9 25 -39 36 -39 6 0 4 8
-3 18 -10 13 -8 12 10 -3 39 -33 90 -89 90 -100 0 -5 -12 5 -27 23 -15 18 -35
32 -44 32 -11 0 -15 5 -12 15 5 11 2 13 -10 9 -13 -5 -14 -9 -5 -20 11 -14 9
-56 -6 -99 -7 -20 -6 -20 9 -1 9 11 16 35 16 53 0 18 4 33 9 33 10 0 81 -79
81 -91 0 -3 11 -6 25 -6 20 0 23 2 14 13 -6 8 -10 14 -7 14 2 0 -17 23 -44 52
-54 58 -58 73 -25 82 33 8 120 83 103 89 -7 3 -23 -8 -36 -25 -12 -16 -42 -39
-66 -50 -44 -19 -45 -19 -72 0 -34 25 -63 56 -66 74 -2 7 -6 22 -10 33 -14 37
-15 43 -6 77 5 18 12 45 15 60 3 15 11 33 18 40 7 7 20 26 30 41 10 15 26 31
35 34 9 3 29 17 43 30 l26 23 11 -25 c6 -14 16 -25 22 -25 5 0 10 -6 10 -12 0
-7 12 -35 25 -63 31 -62 31 -88 2 -117 -13 -13 -29 -32 -35 -43 -6 -11 -13
-17 -16 -14 -3 3 10 31 28 62 19 31 31 57 27 57 -3 0 -15 -13 -24 -30 -30 -50
-40 -34 -12 18 l27 47 -27 -30 -27 -30 18 35 c9 19 22 38 28 42 6 4 7 8 2 8
-5 0 -17 -7 -26 -15 -15 -14 -17 -12 -15 17 1 18 -4 46 -11 63 -12 27 -13 28
-14 7 0 -16 -4 -21 -12 -16 -10 6 -10 4 0 -7 21 -22 13 -33 -9 -13 -22 19 -22
19 -8 -3 8 -13 17 -23 22 -23 4 0 5 -5 2 -11 -5 -7 -16 -2 -31 12 -13 12 -24
18 -24 11 0 -6 12 -20 26 -31 24 -19 25 -24 20 -78 -13 -128 -18 -169 -22
-185 -7 -25 12 -22 52 8 34 26 80 91 72 100 -3 2 -16 -11 -29 -31 -13 -19 -28
-35 -32 -35 -11 0 -9 4 28 62 17 26 35 48 42 48 12 0 11 -40 -1 -75 -8 -20 -8
-20 9 0 25 30 12 138 -27 225 -17 38 -35 67 -39 64 -5 -3 -11 6 -15 20 -4 16
-12 24 -24 23 -10 -1 -17 -4 -15 -8z m-340 -189 c18 -11 36 -27 39 -36 3 -8
10 -13 15 -9 15 9 74 -48 99 -96 13 -24 21 -41 17 -38 -3 4 -29 -2 -57 -13
-38 -14 -73 -19 -139 -17 -95 2 -116 12 -46 23 23 4 57 9 76 13 24 4 32 2 27
-6 -4 -6 -22 -12 -39 -12 -31 -2 -31 -2 -4 -6 15 -3 51 3 80 12 29 9 58 18 64
20 9 3 5 16 -12 41 -14 20 -25 41 -25 45 0 5 -5 9 -10 9 -7 0 -7 -7 0 -21 7
-11 9 -23 6 -26 -12 -12 -36 8 -66 54 -17 27 -43 54 -58 61 -26 12 -26 12 4
-21 30 -31 68 -87 61 -87 -16 0 -67 24 -67 31 0 17 -5 24 -41 56 -20 18 -42
33 -49 33 -7 0 -1 -9 13 -20 15 -12 36 -34 47 -50 l21 -30 -20 0 c-13 0 -42
22 -70 52 -27 29 -53 50 -56 46 -4 -4 9 -21 29 -38 20 -18 36 -38 36 -46 0 -7
16 -16 38 -19 51 -8 118 -24 175 -42 88 -27 42 -24 -79 6 -103 26 -174 39
-222 40 -7 1 -11 5 -7 11 3 5 -13 22 -36 37 l-41 27 26 7 c15 4 33 12 39 17
31 26 186 21 232 -8z" fill="#C0C0C0"/><!-- leaves -->
<path d="M1585 294 c-22 -25 -49 -63 -60 -85 -12 -22 -23 -37 -27 -34 -4 5
-16 -55 -20 -105 -1 -8 -4 -17 -9 -20 -4 -3 -1 -16 6 -30 l14 -25 1 35 c1 100
31 149 44 74 4 -19 10 -42 13 -50 3 -8 1 -14 -5 -14 -5 0 -13 16 -17 36 -3 20
-8 34 -11 32 -10 -10 20 -108 33 -108 7 0 13 2 13 4 0 3 12 47 26 98 14 51 27
117 28 147 1 30 7 56 12 58 13 4 45 -53 60 -107 17 -60 20 -151 5 -178 -8 -15
-8 -22 -1 -22 11 0 14 7 25 55 6 28 8 29 20 12 7 -10 16 -14 19 -9 3 5 -6 15
-19 22 -13 7 -22 17 -19 21 3 5 0 35 -7 66 -6 32 -14 73 -16 91 -3 20 -10 31
-17 29 -7 -3 -18 8 -25 24 -7 16 -16 29 -19 29 -4 -1 -25 -21 -47 -46z m7 -74
c-12 -35 -21 -49 -25 -40 -4 8 -4 -1 -1 -20 4 -27 3 -32 -6 -20 -8 11 -9 6 -5
-25 5 -36 4 -37 -6 -15 -6 14 -15 33 -20 42 -11 21 -4 40 34 101 38 60 53 48
29 -23z" fill="#C0C0C0"/><!-- leaves -->
<path d="M1217 223 c-23 -4 -27 -8 -21 -26 4 -12 7 -41 6 -65 0 -29 5 -45 14
-49 8 -3 14 -12 14 -20 0 -8 -4 -12 -8 -9 -4 2 -9 -10 -9 -27 -2 -25 0 -28 6
-12 8 20 8 20 14 0 6 -20 6 -20 4 0 -2 28 17 35 21 8 4 -27 37 -32 46 -7 3 9
2 12 -4 9 -10 -6 -59 33 -60 47 0 4 12 3 28 -1 15 -4 32 -6 38 -4 17 6 104
-35 110 -52 9 -22 33 -19 27 4 -3 11 -16 22 -30 26 -24 6 -25 7 -8 25 10 11
22 17 26 14 5 -3 9 2 9 10 0 22 -8 20 -33 -10 l-22 -26 -53 20 c-28 11 -52 17
-52 13 0 -4 -16 -5 -35 -3 -26 3 -35 9 -35 23 0 25 40 68 67 72 11 2 29 9 39
17 11 9 15 10 10 3 -4 -7 -2 -13 3 -13 6 0 11 7 11 15 0 8 -9 15 -21 15 -11 0
-17 -4 -14 -10 9 -15 -7 -12 -29 5 -11 8 -22 14 -25 14 -3 -1 -19 -4 -34 -6z
m51 -21 c2 -7 -3 -12 -11 -12 -8 0 -22 -10 -30 -22 -9 -13 -16 -18 -16 -11 -1
6 10 20 24 31 14 11 21 23 15 25 -6 3 -5 4 2 3 6 -1 14 -8 16 -14z" fill="#C0C0C0"/><!-- leaves -->
<path d="M680 161 c-36 -8 -70 -20 -76 -26 -6 -5 -27 -21 -47 -35 -20 -14 -37
-30 -37 -36 0 -6 -11 -21 -25 -34 -41 -39 -19 -36 25 4 22 20 37 36 33 36 -15
0 51 47 81 58 31 12 38 10 80 -15 25 -15 46 -31 46 -34 0 -19 -36 -16 -71 7
-22 14 -48 24 -57 22 -11 -2 0 -12 31 -27 26 -12 45 -27 41 -32 -9 -14 -30
-11 -69 12 -50 30 -54 18 -5 -14 l40 -26 91 43 92 43 -34 13 c-19 8 -38 15
-44 18 -5 2 1 -5 14 -16 41 -33 5 -37 -56 -7 -45 23 -52 30 -38 38 11 6 26 5
42 -2 15 -7 22 -7 18 -1 -8 13 -5 13 45 -5 24 -8 45 -13 48 -10 5 5 2 6 -63
28 -34 12 -49 12 -105 -2z" fill="#C0C0C0"/><!-- leaves -->
</g>
</svg>
