<?xml version="1.0" standalone="no"?>
<!DOCTYPE svg PUBLIC "-//W3C//DTD SVG 20010904//EN"
 "http://www.w3.org/TR/2001/REC-SVG-20010904/DTD/svg10.dtd">
<svg version="1.0" xmlns="http://www.w3.org/2000/svg"
 width="50.000000pt" height="50.000000pt" viewBox="0 0 50.000000 50.000000"
 preserveAspectRatio="xMidYMid meet">
<metadata>
Created by potrace 1.10, written by Peter Selinger 2001-2011
</metadata>
<g transform="translate(0.000000,50.000000) scale(0.100000,-0.100000)"
fill="#000000" stroke="none">
<path d="M215 450 c-23 -24 -37 -30 -70 -30 -51 0 -65 -13 -65 -64 0 -31 -7
-47 -32 -73 l-32 -33 32 -33 c25 -26 32 -42 32 -73 0 -50 14 -64 64 -64 31 0
47 -7 73 -32 l33 -32 33 32 c26 25 42 32 73 32 50 0 64 14 64 64 0 31 7 47 32
73 l32 33 -32 33 c-25 26 -32 42 -32 73 0 51 -14 64 -65 64 -33 0 -47 6 -70
30 -16 17 -32 30 -35 30 -3 0 -19 -13 -35 -30z m127 -78 c32 3 33 2 33 -36 1
-29 7 -44 28 -62 l27 -23 -30 -29 c-25 -25 -28 -35 -23 -66 l6 -37 -43 3 c-36
2 -46 -2 -66 -26 l-24 -27 0 180 0 179 30 -29 c23 -24 37 -30 62 -27z m-126
-279 c-3 -3 -15 2 -28 11 -12 9 -35 16 -50 16 -25 0 -28 4 -28 31 0 17 -11 45
-26 64 l-26 35 26 31 c17 20 26 42 26 65 0 32 2 34 33 34 18 0 42 6 53 14 19
14 19 11 22 -141 1 -86 0 -158 -2 -160z"/>

<path d="M250 249 l0 -180 24 27 c20 24 30 28 66 26 l43 -3 -6 37 c-5 31 -2
41 23 66 l30 29 -27 23 c-21 18 -27 33 -28 62 0 38 -1 39 -33 36 -25 -3 -39 3
-62 27 l-30 29 0 -179z"/>

<path d="M196 394 c-11 -8 -35 -14 -53 -14 -31 0 -33 -2 -33 -34 0 -23 -9 -45
-26 -65 l-26 -31 26 -35 c15 -19 26 -47 26 -64 0 -27 3 -31 28 -31 15 0 38 -7
50 -16 13 -9 25 -14 28 -11 2 2 3 74 2 160 -3 152 -3 155 -22 141z"/>

</g>
</svg>
