<svg xmlns="http://www.w3.org/2000/svg" viewBox="0 0 800 261.92" aria-hidden="true" role="img">
  <title>Greenville County Library System Logo</title>
  <path fill="#0c83c6" d="M142.45 76.66l-.1-1.51a8.75 8.75 0 01.62-2.84c.41-1.13 1-1.74 1.84-1.8h56.07c1.58 0 2.37 2.22 2.37 6.68s-1.1 6.68-3.32 6.68h-17.05v114.59h44.43l7.29-14.11c.56-1.2 2-1.79 4.21-1.79a15.59 15.59 0 016 1.08c1.72.74 2.6 1.66 2.6 2.8a1.68 1.68 0 01-.1.66l-8.81 26H147q-2.19 0-2.19-5.06c0-3.39.86-5.92 2.56-7.62.5-.51 1.61-.77 3.32-.77q12.21.19 12.21-4V85.38c0-1-.42-1.51-1.22-1.51h-15.44c-1.77 0-3-1.71-3.61-5.12a14.74 14.74 0 01-.18-2.09zm165 2.94q-3.89 0-3.88-7.76 0-4.26 2.46-5.21 8.25-3.22 32.3-3.51c2.72 0 4.13 2.68 4.26 8.06v52.93q13.06-7.74 23.3-7.76h.58q18.56 0 29.35 13.17t10.79 35.95q0 22.75-12.78 35.84t-32.29 13.07q-7.59 0-17-5.69c-1.52-.87-2.82-1.61-3.88-2.17l-6.63 8a6.29 6.29 0 01-3.09.57c-1.42 0-3.58-.72-6.48-2.14s-4.43-2.78-4.55-4.12l4.26-17.14V79.6zm35.14 113.86q9 6.33 17.81 6.33 18.09 0 24.25-17.23 2.46-6.83 2.45-17.15 0-17.81-8.24-26.24a20.48 20.48 0 00-14.82-6.3 31 31 0 00-16.34 4.6 22.45 22.45 0 00-5.11 4.26zm136.28-77l2.27-.1a11.27 11.27 0 014.79 1.47 17.77 17.77 0 015.39 4.41c1.68 2 2.51 4.79 2.51 8.52a11.81 11.81 0 01-4 9.19 13 13 0 01-9 3.59 11.27 11.27 0 01-8.54-3.73 11.87 11.87 0 01-3.49-8.2 24.44 24.44 0 00-8.34 5.87 64.26 64.26 0 00-4.72 6.16l-4.17 6.44v49.62h23c1.44 0 2.17 1.74 2.17 5.2s-.46 5.71-1.37 6.7a3.74 3.74 0 01-2.51 1.45h-55.1c-1.77 0-2.64-1.73-2.6-5.16s.86-6 2.51-7.52c.5-.45 2.27-.67 5.3-.67 6.75 0 10.13-1.37 10.13-4.07V133.2h-16.67c-2.47 0-3.69-2-3.69-6.11s.82-6.42 2.46-7a47.33 47.33 0 0113.69-2.84c5.77-.5 9.49-.75 11.13-.75h4.63c2.34-.06 3.73.39 4.17 1.37a14.69 14.69 0 01.57 5.54l-.09 3.79c0 .76 0 1.52-.05 2.27s0 1.45 0 2.08q16.43-15.08 29.6-15.1zm51.62 13.27a16.9 16.9 0 011.13 6.9 11.3 11.3 0 01-3.69 8.14 12.9 12.9 0 01-9.29 3.79q-8.81 0-12-7.76a15.87 15.87 0 01-.94-5.78q0-6.82 7.2-11.75 10.42-6.92 32.21-6.91 17.33 0 25.56 10.52 6.54 8.43 6.54 23.86v49h15.91c1.71 0 2.57 1.87 2.57 5.59a13.41 13.41 0 01-1 4.88 4.23 4.23 0 01-2.94 2.88q-5.31 1.51-15.2 1.52c-6.59 0-10.28-.12-11-.33a7.11 7.11 0 01-2.51-1.57q-1.37-1.23-3.17-6.15-11.55 8.43-27 8.43t-23.54-7.49q-8.09-7.49-8.09-19.13 0-14.78 10-22.45t24.07-7.66h23.39q0-15.83-2.6-20.42a14.74 14.74 0 00-6.25-6.34 22.65 22.65 0 00-9.71-1.74zm4.92 70.65q11.94 0 23.3-9.48v-18.49h-19.34c-6 0-10.16.86-12.51 2.56q-6.52 4.56-6.53 10.52 0 11.17 9.28 14a19.34 19.34 0 005.78.88zm131.73-83.92l2.28-.1a11.19 11.19 0 014.78 1.47 17.8 17.8 0 015.4 4.41c1.68 2 2.5 4.79 2.5 8.52a11.84 11.84 0 01-4 9.19 13 13 0 01-9 3.59 11.27 11.27 0 01-8.53-3.73 11.87 11.87 0 01-3.49-8.2 24.15 24.15 0 00-8.34 5.87 62.89 62.89 0 00-4.73 6.16l-4.17 6.44v49.62h23c1.45 0 2.18 1.74 2.18 5.2s-.46 5.71-1.38 6.7a3.7 3.7 0 01-2.5 1.45H606c-1.77 0-2.64-1.73-2.6-5.16s.87-6 2.51-7.52c.51-.45 2.28-.67 5.3-.67 6.77 0 10.13-1.37 10.13-4.07V133.2h-16.63c-2.47 0-3.69-2-3.69-6.11s.82-6.42 2.46-7a47.18 47.18 0 0113.68-2.84q8.67-.75 11.14-.75h4.63c2.34-.06 3.73.39 4.17 1.37a14.85 14.85 0 01.58 5.54l-.11 3.79v4.35q16.43-15.08 29.55-15.1zM706.79 225q13.55 0 13.74 15.15c2 0 3.77-1.14 5.26-3.41a48.18 48.18 0 003.87-7.29q1.67-3.88 2.84-7.35c.8-2.3 1.46-4.34 2-6.1s.91-2.94 1.1-3.5l-31.46-80.9h-10.61c-1.65 0-2.47-1.73-2.47-5.16s.45-5.67 1.34-6.68a3.52 3.52 0 012.36-1.51h41.12q2.36 0 2.36 5.11c0 3.41-.5 5.64-1.47 6.68s-1.79 1.56-2.42 1.56q-8.33 0-8.32 4.08l19.22 56.26 22.44-60.34h-12.4c-1.64 0-2.47-1.74-2.47-5.2s.43-5.71 1.28-6.69 1.57-1.46 2.13-1.46h35.51c1.59 0 2.38 1.79 2.38 5.41q0 7.93-4.54 7.94a11.28 11.28 0 00-5.26.9 5.82 5.82 0 00-2.43 3.18l-40 102a25.83 25.83 0 01-9.85 12.44q-6.83 4.6-16.76 4.6-13.27 0-18.57-8.7a16.3 16.3 0 01-1.84-8.44 12.32 12.32 0 013.7-8.9 11.11 11.11 0 018.08-3.69z"></path>
  <path fill="#4e4c68" d="M377.75 71.28a11.36 11.36 0 00-13.74 2 11.59 11.59 0 1017.34 15.31v-5.27h-9.15v-3.76h12.91v16.88h-3.76V93c-2.13 2.48-5.19 3.73-9.15 3.73a15.29 15.29 0 01-10.86-26.15 14.82 14.82 0 0110.86-4.55 15 15 0 017.35 1.97 15.34 15.34 0 015.59 5.17l-3.13 2a11.74 11.74 0 00-4.26-3.89zm27.41 12.04h-8.76v13.12h-3.73v-30h15.93a8.56 8.56 0 018.4 8.44 8.12 8.12 0 01-2.19 5.66 8.33 8.33 0 01-5.42 2.74L417 96.44h-4.3zm6.74-11.73a4.43 4.43 0 00-3.3-1.42h-12.2v9.39h12.2a4.65 4.65 0 003.3-8zm10.77-5.15h18.75v3.73h-15v9h11.25V83h-11.26v9.74h15v3.75h-18.74zm26.27 0h18.74v3.73h-15v9h11.26V83h-11.27v9.74h15v3.75h-18.73zm30 6.9v23.1h-3.73v-30h3.73l15 23.11V66.44h3.76v30H494zm33.43 23.1l-10.92-30h4l9.52 26.12 9.5-26.12h4l-10.91 30zm19.85-30H536v30h-3.73zm11.25 0h3.74v26.25h15v3.75h-18.74zm22.53 0h3.75v26.25h15v3.75H566zm22.49 0h18.74v3.73h-15v9h11.26V83h-11.27v9.74h15v3.75h-18.73zm58.42 4.82a11.58 11.58 0 00-13.74 18.37 11.21 11.21 0 008.2 3.43 11.34 11.34 0 005.5-1.43 11.72 11.72 0 004.26-3.88l3.13 2.06a15.35 15.35 0 01-5.57 5.1 15.12 15.12 0 01-7.32 1.86 15.29 15.29 0 01-10.85-26.15 14.77 14.77 0 0110.85-4.55 15 15 0 017.35 1.93 15.61 15.61 0 015.6 5.17l-3.14 2a12 12 0 00-4.27-3.91zm37.37 21a15.32 15.32 0 11-21.7-21.64 15.32 15.32 0 1121.7 21.64zm-2.63-19a11.59 11.59 0 10-16.4 16.37 11.59 11.59 0 1016.4-16.37zm33.6 19.95a12.19 12.19 0 01-17.22 0 11.64 11.64 0 01-3.57-8.59V66.44h3.73v18.18a8.44 8.44 0 0016.88 0V66.44h3.75v18.18a11.6 11.6 0 01-3.57 8.59zm14.83-19.87v23.1h-3.73v-30h3.73l15 23.11V66.44h3.76v30h-3.76zm36.58 23.1h-3.76V70.17h-9.36v-3.73H776v3.73h-9.38zm23.25 0h-3.75V82l-10.1-15.57h4.44L788 78l7.54-11.54H800L789.91 82zm-262.2 163.03a8.21 8.21 0 01-6 2.45 8.07 8.07 0 01-5.27-1.9 8.16 8.16 0 01-2.86-4.85l3.63-1a4.78 4.78 0 001.51 2.85 4.33 4.33 0 003 1.15 4.66 4.66 0 003.31-1.37 4.28 4.28 0 001.42-3.27c0-1.94-1.12-3.44-3.35-4.46-2-.95-4.08-1.88-6.17-2.81a7.54 7.54 0 01-3.34-6.73 7.88 7.88 0 012.51-5.92 8.31 8.31 0 016-2.43 7.9 7.9 0 015.27 1.93 8.22 8.22 0 012.84 4.87l-3.7 1a4.67 4.67 0 00-1.45-2.88 4.16 4.16 0 00-3-1.14 4.71 4.71 0 00-3.32 1.36 4.32 4.32 0 00-1.41 3.26c0 2 1.11 3.48 3.34 4.54l6.15 2.77a7.55 7.55 0 013.35 6.69 7.94 7.94 0 01-2.46 5.89zm19.18 2.11h-3.76v-14.43l-10.08-15.58h4.42l7.53 11.55 7.54-11.55H557l-10.1 15.58zm27.03-2.11a8.24 8.24 0 01-6 2.45 8.07 8.07 0 01-5.27-1.9 8.16 8.16 0 01-2.86-4.85l3.63-1a4.74 4.74 0 001.52 2.85 4.29 4.29 0 003 1.15 4.69 4.69 0 003.32-1.37 4.31 4.31 0 001.41-3.27c0-1.94-1.12-3.44-3.34-4.46-2-.95-4.08-1.88-6.18-2.81a7.54 7.54 0 01-3.34-6.73 8 8 0 012.5-5.92 8.35 8.35 0 016-2.43 7.91 7.91 0 015.28 1.93 8.21 8.21 0 012.83 4.87l-3.69 1a4.74 4.74 0 00-1.46-2.88 4.16 4.16 0 00-3-1.14 4.75 4.75 0 00-3.27 1.34 4.34 4.34 0 00-1.4 3.26c0 2 1.12 3.48 3.34 4.54l6.16 2.77a7.54 7.54 0 013.34 6.69 8 8 0 01-2.52 5.91zm20.31 2.11h-3.77v-26.26h-9.36v-3.75h22.51v3.75h-9.38zm14.06-30.01H627v3.75h-15v9h11.25v3.76H612v9.74h15v3.76h-18.71zm52.52 9l-9.2 21h-4.13l-9.18-21v21h-3.75v-30h3.9l11.1 25.34 11.12-25.34h3.89v30h-3.75z"></path>
  <path fill="#0d84c7" d="M253.89 132.73c-2.58-.06-3.86-2.58-3.86-7.56 0-3 .84-4.74 2.54-5.37q8.4-3.31 32.1-3.5h.09q4 0 4.14 8v75h15.86c1.65 0 2.46 1.71 2.46 5.14s-.46 5.65-1.42 6.65a3.82 3.82 0 01-2.45 1.52h-48.14q-2.44 0-2.44-5.16c0-3.42.46-5.64 1.41-6.65s1.66-1.5 2.16-1.5h1.23q11 0 12.47-2.18a2.7 2.7 0 00.47-1.88v-62.51zm20.48-33.47q-11 0-15-9.71a17.61 17.61 0 01-1.21-6.55c0-7.51 3.26-12.61 9.83-15.29a16.8 16.8 0 016.38-1.19 15.7 15.7 0 0111.56 4.68 16 16 0 014.68 11.8 15.78 15.78 0 01-16.24 16.22z"></path>
  <path fill="#fbaf45" fill-rule="evenodd" d="M85.44 23.9h-.01.01z"></path>
  <path fill="#42c4dc" fill-rule="evenodd" d="M100.76 21.76h7.32s13 0 13 13v113.57s0 13-13 13H96.57v20.46l-34.41-20.53 38.6-19.85z"></path>
  <path fill="#0d84c7" fill-rule="evenodd" d="M62.97 21.76v133.33l32.39-16.53V0L62.97 21.76z"></path>
  <path fill="#fbaf45" d="M58 161.26l-37.56-19.85V21.76H13s-13 0-13 13v113.57s0 13 13 13z"></path>
  <path fill="#bf4097" d="M57.16 155.09l-31.31-16.53V0l31.31 21.75v133.34z"></path>
</svg>