<?xml version="1.0" standalone="no"?>
<!DOCTYPE svg PUBLIC "-//W3C//DTD SVG 20010904//EN"
 "http://www.w3.org/TR/2001/REC-SVG-20010904/DTD/svg10.dtd">
<svg version="1.0" xmlns="http://www.w3.org/2000/svg"
 width="50.000000pt" height="50.000000pt" viewBox="0 0 50.000000 50.000000"
 preserveAspectRatio="xMidYMid meet">
<metadata>
Created by potrace 1.10, written by Peter Selinger 2001-2011
</metadata>
<g transform="translate(0.000000,50.000000) scale(0.100000,-0.100000)"
fill="#000000" stroke="none">
<path d="M80 420 c-18 -18 -20 -33 -20 -170 0 -137 2 -152 20 -170 18 -18 33
-20 170 -20 200 0 190 -10 190 190 0 200 10 190 -190 190 -137 0 -152 -2 -170
-20z m100 -55 l0 -45 -45 0 c-44 0 -45 1 -45 33 0 42 15 57 57 57 32 0 33 -1
33 -45z m110 0 l0 -45 -40 0 -40 0 0 45 0 45 40 0 40 0 0 -45z m108 33 c7 -7
12 -27 12 -45 0 -32 -1 -33 -45 -33 l-45 0 0 45 c0 44 1 45 33 45 18 0 38 -5
45 -12z m-218 -148 l0 -40 -45 0 -45 0 0 40 0 40 45 0 45 0 0 -40z m110 0 c0
-40 0 -40 -40 -40 -40 0 -40 0 -40 40 0 40 0 40 40 40 40 0 40 0 40 -40z m120
0 l0 -40 -45 0 -45 0 0 40 0 40 45 0 45 0 0 -40z m-230 -115 c0 -44 -1 -45
-33 -45 -18 0 -38 5 -45 12 -7 7 -12 27 -12 45 0 32 1 33 45 33 l45 0 0 -45z
m110 0 l0 -45 -40 0 -40 0 0 45 0 45 40 0 40 0 0 -45z m120 12 c0 -18 -5 -38
-12 -45 -7 -7 -27 -12 -45 -12 -32 0 -33 1 -33 45 l0 45 45 0 c44 0 45 -1 45
-33z"/>
</g>
</svg>
