<?xml version="1.0" standalone="no"?>
<!DOCTYPE svg PUBLIC "-//W3C//DTD SVG 20010904//EN"
 "http://www.w3.org/TR/2001/REC-SVG-20010904/DTD/svg10.dtd">
<svg version="1.0" xmlns="http://www.w3.org/2000/svg"
 width="50.000000pt" height="50.000000pt" viewBox="0 0 50.000000 50.000000"
 preserveAspectRatio="xMidYMid meet">
<metadata>
Created by potrace 1.10, written by Peter Selinger 2001-2011
</metadata>
<g transform="translate(0.000000,50.000000) scale(0.100000,-0.100000)"
fill="#334164" stroke="none">
<path d="M62 438 c-16 -16 -16 -80 0 -96 7 -7 28 -12 48 -12 20 0 41 5 48 12
16 16 16 80 0 96 -16 16 -80 16 -96 0z m76 -45 c-2 -22 -9 -29 -30 -31 -25 -3
-28 0 -28 27 0 28 3 31 31 31 27 0 30 -3 27 -27z"/>
<path d="M205 399 c-15 -23 15 -30 126 -27 93 2 114 6 114 18 0 12 -21 16
-117 18 -78 2 -119 -1 -123 -9z"/>
<path d="M62 298 c-16 -16 -16 -80 0 -96 16 -16 80 -16 96 0 16 16 16 80 0 96
-16 16 -80 16 -96 0z m73 -48 c0 -20 -6 -26 -27 -28 -25 -3 -28 0 -28 28 0 28
3 31 28 28 21 -2 27 -8 27 -28z"/>
<path d="M205 259 c-15 -23 15 -30 126 -27 93 2 114 6 114 18 0 12 -21 16
-117 18 -78 2 -119 -1 -123 -9z"/>
<path d="M62 158 c-16 -16 -16 -80 0 -96 16 -16 80 -16 96 0 16 16 16 80 0 96
-16 16 -80 16 -96 0z m76 -50 c3 -25 0 -28 -27 -28 -28 0 -31 3 -31 31 0 27 3
30 28 27 21 -2 28 -9 30 -30z"/>
<path d="M205 119 c-15 -23 15 -30 126 -27 93 2 114 6 114 18 0 12 -21 16
-117 18 -78 2 -119 -1 -123 -9z"/>
</g>
</svg>
