<?xml version="1.0" encoding="UTF-8"?>
<svg width="269px" height="28px" viewBox="0 0 269 28" version="1.1" xmlns="http://www.w3.org/2000/svg" xmlns:xlink="http://www.w3.org/1999/xlink">
    <!-- Generator: sketchtool 59.1 (101010) - https://sketch.com -->
    <title>648DE3F7-E031-400F-AF3C-B7E97452BC4C</title>
    <desc>Created with sketchtool.</desc>
    <defs>
        <linearGradient x1="11.2732148%" y1="62.8055556%" x2="75.0731489%" y2="45.5555556%" id="linearGradient-1">
            <stop stop-color="#DC2B7B" offset="0%"></stop>
            <stop stop-color="#D01D63" offset="100%"></stop>
        </linearGradient>
        <linearGradient x1="35.8217118%" y1="72.8748405%" x2="84.9876948%" y2="-6.35312263%" id="linearGradient-2">
            <stop stop-color="#EC1555" offset="0%"></stop>
            <stop stop-color="#CF4882" offset="100%"></stop>
        </linearGradient>
        <linearGradient x1="83.1291368%" y1="65.0576805%" x2="19.6589066%" y2="35.5298706%" id="linearGradient-3">
            <stop stop-color="#EC1555" offset="0%"></stop>
            <stop stop-color="#EE3E29" offset="100%"></stop>
        </linearGradient>
        <linearGradient x1="44.5415392%" y1="7.77777778%" x2="55.4584608%" y2="92.3055556%" id="linearGradient-4">
            <stop stop-color="#F05F25" offset="0%"></stop>
            <stop stop-color="#ED3729" offset="100%"></stop>
        </linearGradient>
        <linearGradient x1="36.2054171%" y1="13.8333333%" x2="59.8249187%" y2="57.1805556%" id="linearGradient-5">
            <stop stop-color="#F37B20" offset="0%"></stop>
            <stop stop-color="#EF4E28" offset="100%"></stop>
        </linearGradient>
        <linearGradient x1="6.44509613%" y1="21.5833333%" x2="67.4286692%" y2="72.6944444%" id="linearGradient-6">
            <stop stop-color="#FFD600" offset="0%"></stop>
            <stop stop-color="#F37B20" offset="100%"></stop>
        </linearGradient>
    </defs>
    <g id="Website-Designs" stroke="none" stroke-width="1" fill="none" fill-rule="evenodd">
        <g id="Homepage-Design" transform="translate(-78.000000, -62.000000)" fill-rule="nonzero">
            <g id="Header-Desktop-Web">
                <g id="prs_clr_h_logo" transform="translate(78.000000, 62.479339)">
                    <path d="M160.712632,8.00173989 L163.044737,8.00173989 L163.044737,13.4823836 L169.370526,13.4823836 L169.370526,8.00173989 L171.702632,8.00173989 L171.702632,21.1552849 L169.370526,21.1552849 L169.370526,15.6125272 L163.044737,15.6125272 L163.044737,21.1552849 L160.712632,21.1552849 L160.712632,8.00173989 Z M179.343684,8.00173989 L189.180526,8.00173989 L189.180526,10.0661157 L181.675789,10.0661157 L181.675789,13.4860374 L188.325789,13.4860374 L188.325789,15.554067 L181.675789,15.554067 L181.675789,19.0872553 L189.272632,19.0872553 L189.272632,21.1552849 L179.343684,21.1552849 L179.343684,8.00173989 Z M201.154211,8.00173989 L203.298421,8.00173989 L209.093684,21.1552849 L206.647368,21.1552849 L205.313684,18.0020879 L199.087368,18.0020879 L197.731579,21.1552849 L195.358947,21.1552849 L201.154211,8.00173989 Z M204.47,15.9669421 L202.189474,10.7420618 L199.931053,15.9669421 L204.47,15.9669421 Z M215.611053,8.00173989 L217.939474,8.00173989 L217.939474,19.0507177 L224.913684,19.0507177 L224.913684,21.1552849 L215.607368,21.1552849 L215.611053,8.00173989 Z M233.210526,10.1428447 L229.017895,10.1428447 L229.017895,8.00173989 L239.779474,8.00173989 L239.779474,10.1428447 L235.575789,10.1428447 L235.575789,21.1552849 L233.210526,21.1552849 L233.210526,10.1428447 Z M246.425789,8.00173989 L248.754211,8.00173989 L248.754211,13.4823836 L255.083684,13.4823836 L255.083684,8.00173989 L257.415789,8.00173989 L257.415789,21.1552849 L255.083684,21.1552849 L255.083684,15.6125272 L248.768947,15.6125272 L248.768947,21.1552849 L246.440526,21.1552849 L246.425789,8.00173989 Z" id="Shape" fill="#6D6E70"></path>
                    <polygon id="Path" fill="url(#linearGradient-1)" points="149.122105 27.0378425 146.701579 21.1552849 132.955789 21.1552849 135.147895 16.0400174 144.62 16.0400174 138.227895 0.730752501 143.861053 0.730752501 155.219474 27.0378425"></polygon>
                    <polygon id="Path" fill="url(#linearGradient-2)" points="97.7531579 0.730752501 104.462105 0.730752501 111.436316 11.8528056 118.406842 0.730752501 124.699474 0.730752501 124.699474 27.0378425 118.900526 27.0378425 118.900526 9.86515876 111.358947 21.2247064 103.894737 9.98573293"></polygon>
                    <path d="M72.3505263,23.216007 L75.7989474,19.1201392 C78.1863158,21.0712484 80.6878947,22.3135276 83.72,22.3135276 C86.1073684,22.3135276 87.5442105,21.3745107 87.5442105,19.8326229 L87.5442105,19.7558939 C87.5442105,18.2943889 86.6378947,17.5417138 82.2021053,16.4127012 C76.86,15.060809 73.4115789,13.5956503 73.4115789,8.37442366 L73.4115789,8.29404089 C73.4115789,3.52222706 77.2763158,0.365376251 82.6957895,0.365376251 C86.2720319,0.30791936 89.7563206,1.49033373 92.5473684,3.70856894 L89.5263158,8.07116137 C87.1794737,6.45254458 84.8657895,5.47699 82.6294737,5.47699 C80.3931579,5.47699 79.2105263,6.49273597 79.2105263,7.76789909 L79.2105263,7.8446281 C79.2105263,9.57285776 80.3452632,10.1355372 84.9321053,11.3010874 C90.3110526,12.6931709 93.3431579,14.5894737 93.3431579,19.1932144 L93.3431579,19.2699435 C93.3431579,24.4911701 89.3273684,27.4252503 83.6057895,27.4252503 C79.4602253,27.4399653 75.4540392,25.9417706 72.3505263,23.216007 Z" id="Path" fill="url(#linearGradient-3)"></path>
                    <polygon id="Path" fill="url(#linearGradient-4)" points="56.1105263 0.730752501 61.9463158 0.730752501 61.9463158 27.0378425 56.1105263 27.0378425"></polygon>
                    <path d="M38.1057895,27.0378425 L28.9615789,13.5189213 L33.7510526,13.5189213 C35.1903509,13.5189213 36.295614,13.1803393 37.0668421,12.5031753 C37.8430785,11.8189344 38.2678718,10.824761 38.2236842,9.79573728 L38.2236842,9.71900826 C38.2236842,8.46576773 37.8221053,7.52675076 37.0115789,6.89830361 C36.2010526,6.26985646 35.0773684,5.95928665 33.6368421,5.95928665 L28,5.95928665 L28,0.730752501 L34.1231579,0.730752501 C37.2805263,0.730752501 39.7415789,1.461505 41.4915789,3.00339278 C43.2415789,4.54528056 44.1257895,6.65715528 44.1257895,9.39747716 L44.1257895,9.49978251 C44.1257895,11.6287081 43.6014035,13.3642453 42.5526316,14.7063941 C41.4919213,16.0586096 40.0643285,17.0827475 38.4373684,17.6586342 L44.9473684,27.0378425 L38.1057895,27.0378425 Z" id="Path" fill="url(#linearGradient-5)"></path>
                    <path d="M0,0.730752501 L10.8389474,0.730752501 C17.1647368,0.730752501 21,4.46124402 21,9.83592866 L21,9.91265768 C21,15.999826 16.2105263,19.1566768 10.2752632,19.1566768 L5.85421053,19.1566768 L5.85421053,27.0378425 L0,27.0378425 L0,0.730752501 Z M10.4594737,14.0085254 C13.3773684,14.0085254 15.0831579,12.2802958 15.0831579,10.0222706 L15.0831579,9.9491953 C15.0831579,7.35502392 13.2631579,5.96659417 10.3452632,5.96659417 L5.83578947,5.96659417 L5.83578947,14.0048717 L10.4594737,14.0085254 Z" id="Shape" fill="url(#linearGradient-6)"></path>
                    <path d="M265.812105,15.8098304 C266.910334,15.783077 267.915455,16.4187633 268.35421,17.417579 C268.792965,18.4163946 268.577901,19.5792548 267.810281,20.3586316 C267.042661,21.1380083 265.875486,21.3785555 264.858317,20.9670125 C263.841148,20.5554695 263.176727,19.5738654 263.177895,18.4843845 C263.169049,17.7831283 263.441739,17.1071643 263.935865,16.605471 C264.42999,16.1037778 265.104993,15.8175355 265.812105,15.8098304 L265.812105,15.8098304 Z M265.812105,20.5597216 C266.674233,20.6121349 267.481324,20.1375008 267.848513,19.3621507 C268.215703,18.5868007 268.068638,17.6677365 267.477447,17.0432182 C266.886256,16.4186998 265.970651,16.2151871 265.167242,16.5297258 C264.363832,16.8442646 263.835303,17.6131634 263.833684,18.4697695 C263.808754,19.0105843 264.004503,19.5385659 264.376753,19.9345501 C264.749002,20.3305343 265.266376,20.561146 265.812105,20.5743367 L265.812105,20.5597216 Z M264.894737,17.1324924 L266,17.1324924 C266.234416,17.1144977 266.465373,17.1969667 266.634419,17.3590277 C266.803465,17.5210886 266.894401,17.7472106 266.884211,17.9801653 C266.897666,18.2913581 266.70261,18.5740845 266.405263,18.6743802 L266.405263,18.6743802 C266.443226,18.7215779 266.475382,18.7730937 266.501053,18.8278382 L267.009474,19.7924315 L266.316842,19.7924315 L265.86,18.8059156 L265.491579,18.8059156 L265.491579,19.7924315 L264.894737,19.7924315 L264.894737,17.1324924 Z M265.871053,18.3820792 C265.979277,18.3890951 266.08512,18.3484638 266.160376,18.2710132 C266.235632,18.1935625 266.272655,18.0871616 266.261579,17.9801653 C266.269823,17.8783048 266.234678,17.7776753 266.164672,17.7026938 C266.094666,17.6277122 265.996197,17.5852314 265.893158,17.5855571 L265.524737,17.5855571 L265.524737,18.3820792 L265.871053,18.3820792 Z" id="Shape" fill="#6D6E70"></path>
                </g>
            </g>
        </g>
    </g>
</svg>