<svg version="1.1" id="Layer_1" xmlns="http://www.w3.org/2000/svg" xmlns:xlink="http://www.w3.org/1999/xlink" x="0px" y="0px"
	 width="100%" viewBox="0 0 264 91" enable-background="new 0 0 264 91" xml:space="preserve">
<path fill="#E7EFF2" opacity="1.000000" stroke="none" 
	d="
M265.000000,58.000000 
	C265.000000,69.317818 265.000000,80.635628 265.000000,91.953903 
	C176.999985,91.954369 88.999985,91.954369 1.000000,91.954369 
	C1.000000,84.918343 1.000000,77.927956 1.468632,70.468857 
	C12.119419,70.392792 22.301573,70.785423 32.105309,71.163467 
	C31.731075,68.687607 31.373503,66.321991 31.357628,64.005165 
	C35.323261,67.400154 39.027359,70.664742 42.544685,74.119484 
	C45.155807,76.684151 47.103878,76.349564 49.616688,73.782539 
	C57.319241,65.913795 65.241196,58.259399 73.118439,50.563206 
	C73.539436,50.151886 74.332634,50.121521 74.935501,50.269878 
	C72.834633,54.878601 67.238823,57.356876 68.565277,63.550591 
	C69.426033,63.689312 70.382820,64.003181 71.327805,63.970966 
	C80.281929,63.665749 89.232056,63.212646 98.188042,63.013851 
	C100.584846,62.960644 102.997749,63.632076 106.164986,64.078117 
	C107.291145,62.699757 108.892792,60.882740 106.692299,57.874912 
	C105.721870,56.548447 105.793465,54.459648 105.736160,52.742653 
	C113.660538,59.934265 121.343147,66.996338 128.767807,74.319923 
	C131.531158,77.045662 133.087952,77.131325 135.934921,74.145287 
	C142.315460,67.453094 149.261536,61.300091 155.981903,55.300621 
	C154.740509,57.533272 153.413406,59.344898 152.276688,61.269009 
	C151.499603,62.584381 150.988007,64.056595 150.357712,65.458687 
	C151.830078,65.972313 153.297501,66.914124 154.775604,66.931206 
	C165.711807,67.057594 176.650314,67.035591 187.587784,66.987915 
	C195.281586,66.954384 196.723633,65.525093 197.480988,57.974762 
	C203.718430,63.687141 209.756271,69.154045 215.531067,74.885956 
	C217.936447,77.273476 219.557465,76.909805 221.749832,74.744240 
	C229.443604,67.144524 237.111526,59.506496 245.093246,52.215801 
	C248.856720,48.778175 249.962433,45.787739 246.346313,42.011032 
	C248.183716,43.743496 250.110336,45.264263 251.006836,47.250084 
	C253.795303,53.426884 258.291870,57.075150 265.000000,58.000000 
z"/>
<path fill="#F3F7FA" opacity="1.000000" stroke="none" 
	d="
M1.000000,20.000000 
	C1.000000,13.675839 1.000000,7.351678 1.000000,1.044707 
	C89.000008,1.044707 177.000015,1.044707 265.000000,1.044707 
	C265.000000,7.413581 265.000000,13.737748 264.531342,20.530981 
	C253.826752,21.000143 243.589554,20.921785 233.356339,21.088457 
	C231.891815,21.112309 230.446594,22.320656 228.666885,23.009403 
	C228.126373,23.073620 227.911392,23.109249 227.505249,23.065228 
	C227.073715,22.819845 226.924683,22.593874 226.874420,21.940296 
	C225.960419,21.032707 225.038986,20.492485 223.809555,19.838543 
	C222.349930,18.435020 221.198303,17.145220 219.971771,15.528569 
	C218.931244,14.800266 217.965622,14.398815 216.783539,13.752932 
	C214.044785,15.047048 211.524582,16.589054 208.999359,18.122807 
	C207.549988,19.003111 206.104080,20.589720 204.636551,20.613367 
	C199.412720,20.697538 194.182251,20.104418 188.950668,20.032417 
	C180.302155,19.913393 171.622849,20.432421 163.008759,19.875172 
	C154.839157,19.346678 146.251801,22.343702 138.493118,17.412920 
	C138.181259,17.214729 137.314514,17.889637 136.368744,18.101318 
	C134.684097,17.189741 133.336990,16.334593 131.913132,15.232625 
	C131.240005,15.358420 130.643631,15.731035 129.901642,16.391560 
	C128.271698,17.794638 126.787399,18.909805 124.844719,20.015490 
	C121.492989,19.519758 118.599640,19.033512 115.025024,18.432772 
	C114.190125,18.732746 112.397972,19.988064 110.674965,19.899424 
	C96.316757,19.160757 81.806137,22.014353 67.574326,18.141064 
	C66.669380,17.894775 65.601082,18.328615 64.624298,18.250933 
	C61.961910,18.039186 59.270412,17.315609 56.660351,17.555470 
	C53.688679,17.828566 51.170856,12.348284 47.688171,16.820068 
	C43.264561,14.146042 42.577927,19.202785 39.591972,19.945866 
	C34.701054,19.627876 30.194870,19.092083 25.695875,19.146860 
	C17.461674,19.247114 9.231723,19.696316 1.000000,20.000000 
z"/>
<path fill="#EFF4F7" opacity="1.000000" stroke="none" 
	d="
M228.992432,22.980820 
	C230.446594,22.320656 231.891815,21.112309 233.356339,21.088457 
	C243.589554,20.921785 253.826752,21.000143 264.531342,21.000023 
	C265.000000,33.020893 265.000000,45.041790 265.000000,57.531342 
	C258.291870,57.075150 253.795303,53.426884 251.006836,47.250084 
	C250.110336,45.264263 248.183716,43.743496 246.074341,41.909210 
	C244.940918,41.219929 244.461533,40.631401 243.985886,39.662640 
	C242.656357,38.189728 241.323105,37.097050 239.711487,35.900631 
	C238.959869,35.186684 238.486633,34.576477 238.008255,33.604362 
	C234.999542,29.821911 231.995987,26.401367 228.992432,22.980820 
z"/>
<path fill="#F1F5F8" opacity="1.000000" stroke="none" 
	d="
M1.000000,20.468653 
	C9.231723,19.696316 17.461674,19.247114 25.695875,19.146860 
	C30.194870,19.092083 34.701054,19.627876 39.451229,20.254547 
	C34.499870,25.426279 29.301279,30.240805 23.714527,35.041855 
	C22.234776,36.384506 21.143185,37.740631 19.912743,39.385811 
	C18.877947,40.465057 17.982002,41.255249 16.689339,42.031788 
	C15.172702,41.823589 14.054821,41.616211 12.932337,41.437798 
	C11.584288,41.223534 10.232316,41.033951 8.882043,40.833679 
	C8.882043,42.373447 8.882043,43.913216 8.882043,45.476227 
	C6.450132,45.637833 3.725066,45.818916 1.000000,46.000000 
	C1.000000,37.645767 1.000000,29.291536 1.000000,20.468653 
z"/>
<path fill="#EBF2F5" opacity="1.000000" stroke="none" 
	d="
M1.000000,46.468636 
	C3.725066,45.818916 6.450132,45.637833 8.882043,45.476227 
	C8.882043,43.913216 8.882043,42.373447 8.882043,40.833679 
	C10.232316,41.033951 11.584288,41.223534 12.932337,41.437798 
	C14.054821,41.616211 15.172702,41.823589 16.629641,42.381611 
	C14.875617,45.488407 14.842600,47.722576 17.655659,50.339939 
	C21.090324,53.535656 23.943113,57.356766 27.073921,61.243401 
	C27.764668,62.036888 28.429033,62.494392 29.380348,62.977196 
	C30.116840,63.320454 30.566385,63.638412 31.015930,63.956371 
	C31.373503,66.321991 31.731075,68.687607 32.105309,71.163467 
	C22.301573,70.785423 12.119419,70.392792 1.468632,70.000076 
	C1.000000,62.312424 1.000000,54.624847 1.000000,46.468636 
z"/>
<path fill="#EDD052" opacity="1.000000" stroke="none" 
	d="
M131.989899,15.479445 
	C133.336990,16.334593 134.684097,17.189741 136.535080,18.398079 
	C145.587952,27.504732 154.136948,36.258198 162.675537,45.364922 
	C160.435867,48.787964 158.206604,51.857750 155.977325,54.927532 
	C149.261536,61.300091 142.315460,67.453094 135.934921,74.145287 
	C133.087952,77.131325 131.531158,77.045662 128.767807,74.319923 
	C121.343147,66.996338 113.660538,59.934265 105.706039,52.747631 
	C105.331734,52.726910 105.273064,52.738937 105.261078,52.412857 
	C104.587921,51.632561 103.926758,51.178341 103.176239,50.868916 
	C103.086891,51.013710 103.287010,50.737942 103.290222,50.410400 
	C102.577736,49.256981 101.862038,48.431107 101.220879,47.294617 
	C103.139732,44.650414 104.984055,42.316818 107.042534,39.813492 
	C107.560600,39.198528 107.864510,38.753304 108.450775,38.154392 
	C109.586838,37.055271 110.440544,36.109833 111.592560,35.007828 
	C113.911522,32.344257 115.932190,29.837254 118.328522,27.339373 
	C119.544235,26.595737 120.384262,25.842981 121.500488,24.902943 
	C122.952156,23.152096 124.127625,21.588533 125.303101,20.024973 
	C126.787399,18.909805 128.271698,17.794638 130.249481,16.376694 
	C131.158615,15.875761 131.574265,15.677604 131.989899,15.479445 
z"/>
<path fill="#70A9C5" opacity="1.000000" stroke="none" 
	d="
M238.013397,33.966270 
	C238.486633,34.576477 238.959869,35.186684 239.826874,36.200737 
	C241.474472,37.750683 242.728302,38.896774 243.982147,40.042870 
	C244.461533,40.631401 244.940918,41.219929 245.692291,41.910278 
	C249.962433,45.787739 248.856720,48.778175 245.093246,52.215801 
	C237.111526,59.506496 229.443604,67.144524 221.749832,74.744240 
	C219.557465,76.909805 217.936447,77.273476 215.531067,74.885956 
	C209.756271,69.154045 203.718430,63.687141 197.465561,57.991287 
	C197.144394,57.869270 197.116196,57.897610 196.998703,57.583923 
	C194.260620,54.497490 191.640030,51.724747 188.904297,48.634987 
	C188.612366,47.235592 188.435547,46.153206 188.541962,44.934914 
	C189.631454,43.613148 190.437714,42.427284 191.172882,41.162613 
	C191.101791,41.083797 191.235397,41.234325 191.557190,41.202988 
	C192.322281,40.506569 192.765579,39.841496 193.117737,39.118576 
	C193.026611,39.060726 193.183594,39.208931 193.512207,39.190514 
	C194.930283,38.130680 196.019730,37.089256 197.410110,35.909470 
	C204.139923,29.173716 210.568802,22.576332 217.379242,15.996490 
	C218.522751,15.961160 219.284714,15.908290 220.046677,15.855420 
	C221.198303,17.145220 222.349930,18.435020 223.893951,20.146919 
	C225.146545,21.148565 226.006775,21.728113 226.866989,22.307663 
	C226.924683,22.593874 227.073715,22.819845 227.592987,23.398859 
	C231.252365,27.196854 234.632889,30.581562 238.013397,33.966270 
z"/>
<path fill="#C3DDD6" opacity="1.000000" stroke="none" 
	d="
M27.047543,60.907413 
	C23.943113,57.356766 21.090324,53.535656 17.655659,50.339939 
	C14.842600,47.722576 14.875617,45.488407 17.026360,42.395260 
	C17.982002,41.255249 18.877947,40.465057 20.249672,39.327293 
	C21.851200,37.671593 22.976944,36.363461 24.102688,35.055328 
	C29.301279,30.240805 34.499870,25.426279 39.839203,20.303072 
	C42.577927,19.202785 43.264561,14.146042 47.820568,17.124208 
	C50.188744,19.373638 52.093048,21.187483 54.034744,23.344509 
	C56.379166,25.798218 58.686195,27.908747 61.199944,30.137897 
	C61.664536,30.455725 61.855808,30.705860 62.021069,31.347059 
	C64.047714,33.774323 66.033783,35.861458 68.168335,38.251373 
	C69.696404,39.697514 71.073921,40.843349 72.455978,41.983681 
	C75.005737,44.087460 76.984146,46.368767 74.952568,49.913815 
	C74.332634,50.121521 73.539436,50.151886 73.118439,50.563206 
	C65.241196,58.259399 57.319241,65.913795 49.616688,73.782539 
	C47.103878,76.349564 45.155807,76.684151 42.544685,74.119484 
	C39.027359,70.664742 35.323261,67.400154 31.357628,64.005165 
	C30.566385,63.638412 30.116840,63.320454 29.313032,62.664295 
	C28.321693,61.853203 27.684618,61.380306 27.047543,60.907413 
z"/>
<path fill="#ECF2F6" opacity="1.000000" stroke="none" 
	d="
M188.258743,45.070824 
	C188.435547,46.153206 188.612366,47.235592 188.899948,49.006874 
	C190.700790,53.429585 192.120758,57.430328 197.116196,57.897610 
	C197.116196,57.897610 197.144394,57.869270 197.159821,57.852745 
	C196.723633,65.525093 195.281586,66.954384 187.587784,66.987915 
	C176.650314,67.035591 165.711807,67.057594 154.775604,66.931206 
	C153.297501,66.914124 151.830078,65.972313 150.357712,65.458687 
	C150.988007,64.056595 151.499603,62.584381 152.276688,61.269009 
	C153.413406,59.344898 154.740509,57.533272 155.981903,55.300621 
	C158.206604,51.857750 160.435867,48.787964 163.084869,45.391747 
	C171.342072,48.593349 179.166855,47.892292 187.303650,45.010574 
	C187.834427,45.041180 188.046585,45.056004 188.258743,45.070824 
z"/>
<path fill="#EDF3F6" opacity="1.000000" stroke="none" 
	d="
M74.935501,50.269878 
	C76.984146,46.368767 75.005737,44.087460 72.455978,41.983681 
	C71.073921,40.843349 69.696404,39.697514 68.162857,37.884033 
	C68.005173,36.476566 68.001465,35.739220 68.353989,35.039238 
	C70.431137,36.279778 72.228165,37.388752 73.857582,38.705200 
	C77.572029,41.706207 82.661255,46.745491 86.127571,43.569355 
	C91.032280,39.075245 95.710678,40.427643 100.709091,40.142830 
	C102.745277,40.026814 104.788406,40.032768 106.828377,39.983223 
	C104.984055,42.316818 103.139732,44.650414 101.182076,47.699585 
	C101.808159,49.189426 102.547585,49.963684 103.287010,50.737938 
	C103.287010,50.737942 103.086891,51.013710 103.127563,51.233887 
	C103.869843,51.882355 104.571457,52.310646 105.273064,52.738937 
	C105.273064,52.738937 105.331734,52.726910 105.361855,52.721931 
	C105.793465,54.459648 105.721870,56.548447 106.692299,57.874912 
	C108.892792,60.882740 107.291145,62.699757 106.164986,64.078117 
	C102.997749,63.632076 100.584846,62.960644 98.188042,63.013851 
	C89.232056,63.212646 80.281929,63.665749 71.327805,63.970966 
	C70.382820,64.003181 69.426033,63.689312 68.565277,63.550591 
	C67.238823,57.356876 72.834633,54.878601 74.935501,50.269878 
z"/>
<path fill="#F0F4F8" opacity="1.000000" stroke="none" 
	d="
M186.985031,44.994793 
	C179.166855,47.892292 171.342072,48.593349 163.095261,45.038490 
	C154.136948,36.258198 145.587952,27.504732 136.872650,18.454506 
	C137.314514,17.889637 138.181259,17.214729 138.493118,17.412920 
	C146.251801,22.343702 154.839157,19.346678 163.008759,19.875172 
	C171.622849,20.432421 180.302155,19.913393 188.950668,20.032417 
	C194.182251,20.104418 199.412720,20.697538 204.636551,20.613367 
	C206.104080,20.589720 207.549988,19.003111 208.999359,18.122807 
	C211.524582,16.589054 214.044785,15.047048 216.780884,14.083342 
	C216.995667,15.098441 216.996689,15.538697 216.997696,15.978951 
	C210.568802,22.576332 204.139923,29.173716 197.029266,35.894859 
	C195.292862,37.082058 194.238220,38.145493 193.183594,39.208931 
	C193.183594,39.208931 193.026611,39.060726 192.760101,39.100811 
	C192.074188,39.838707 191.654800,40.536514 191.235397,41.234325 
	C191.235397,41.234325 191.101791,41.083797 190.807938,41.109879 
	C189.337738,42.422237 188.161392,43.708515 186.985031,44.994793 
z"/>
<path fill="#F1F5F8" opacity="1.000000" stroke="none" 
	d="
M107.042534,39.813492 
	C104.788406,40.032768 102.745277,40.026814 100.709091,40.142830 
	C95.710678,40.427643 91.032280,39.075245 86.127571,43.569355 
	C82.661255,46.745491 77.572029,41.706207 73.857582,38.705200 
	C72.228165,37.388752 70.431137,36.279778 68.056778,34.891403 
	C65.595726,33.473114 63.788105,32.240021 61.980484,31.006927 
	C61.855808,30.705860 61.664536,30.455725 61.167542,29.791431 
	C58.618061,27.218004 56.307705,25.109667 53.997353,23.001328 
	C52.093048,21.187483 50.188744,19.373638 48.152039,17.255653 
	C51.170856,12.348284 53.688679,17.828566 56.660351,17.555470 
	C59.270412,17.315609 61.961910,18.039186 64.624298,18.250933 
	C65.601082,18.328615 66.669380,17.894775 67.574326,18.141064 
	C81.806137,22.014353 96.316757,19.160757 110.674965,19.899424 
	C112.397972,19.988064 114.190125,18.732746 115.025024,18.432772 
	C118.599640,19.033512 121.492989,19.519758 124.844719,20.015490 
	C124.127625,21.588533 122.952156,23.152096 121.136322,24.896854 
	C119.648254,25.828783 118.800552,26.579517 117.952850,27.330250 
	C115.932190,29.837254 113.911522,32.344257 111.265381,34.847580 
	C109.652863,34.320858 108.665825,33.797821 106.450462,32.623871 
	C107.296776,35.424084 107.732597,36.866081 108.168411,38.308075 
	C107.864510,38.753304 107.560600,39.198528 107.042534,39.813492 
z"/>
<path fill="#E7EFF2" opacity="1.000000" stroke="none" 
	d="
M238.008255,33.604362 
	C234.632889,30.581562 231.252365,27.196854 227.784119,23.478512 
	C227.911392,23.109249 228.126373,23.073620 228.666885,23.009407 
	C231.995987,26.401367 234.999542,29.821911 238.008255,33.604362 
z"/>
<path fill="#E7EFF2" opacity="1.000000" stroke="none" 
	d="
M217.379242,15.996492 
	C216.996689,15.538697 216.995667,15.098441 216.997330,14.327775 
	C217.965622,14.398815 218.931244,14.800266 219.971771,15.528568 
	C219.284714,15.908290 218.522751,15.961160 217.379242,15.996492 
z"/>
<path fill="#E7EFF2" opacity="1.000000" stroke="none" 
	d="
M226.874420,21.940296 
	C226.006775,21.728113 225.146545,21.148565 224.201935,20.260639 
	C225.038986,20.492485 225.960419,21.032707 226.874420,21.940296 
z"/>
<path fill="#E7EFF2" opacity="1.000000" stroke="none" 
	d="
M131.913132,15.232626 
	C131.574265,15.677604 131.158615,15.875761 130.395126,16.088785 
	C130.643631,15.731035 131.240005,15.358420 131.913132,15.232626 
z"/>
<path fill="#E7EFF2" opacity="1.000000" stroke="none" 
	d="
M243.985886,39.662636 
	C242.728302,38.896774 241.474472,37.750683 240.105225,36.304482 
	C241.323105,37.097050 242.656357,38.189728 243.985886,39.662636 
z"/>
<path fill="#EBF2F5" opacity="1.000000" stroke="none" 
	d="
M23.714527,35.041855 
	C22.976944,36.363461 21.851200,37.671593 20.388523,39.038239 
	C21.143185,37.740631 22.234776,36.384506 23.714527,35.041855 
z"/>
<path fill="#E7EFF2" opacity="1.000000" stroke="none" 
	d="
M27.073921,61.243401 
	C27.684618,61.380306 28.321693,61.853203 29.026085,62.639000 
	C28.429033,62.494392 27.764668,62.036888 27.073921,61.243401 
z"/>
<path fill="#EDF3F6" opacity="1.000000" stroke="none" 
	d="
M108.450775,38.154392 
	C107.732597,36.866081 107.296776,35.424084 106.450462,32.623871 
	C108.665825,33.797821 109.652863,34.320858 110.967072,35.004147 
	C110.440544,36.109833 109.586838,37.055271 108.450775,38.154392 
z"/>
<path fill="#E7EFF2" opacity="1.000000" stroke="none" 
	d="
M118.328522,27.339375 
	C118.800552,26.579517 119.648254,25.828783 120.860123,25.084137 
	C120.384262,25.842981 119.544235,26.595737 118.328522,27.339375 
z"/>
<path fill="#E7EFF2" opacity="1.000000" stroke="none" 
	d="
M103.290222,50.410397 
	C102.547585,49.963684 101.808159,49.189426 101.107536,48.010201 
	C101.862038,48.431107 102.577736,49.256981 103.290222,50.410397 
z"/>
<path fill="#E7EFF2" opacity="1.000000" stroke="none" 
	d="
M105.261078,52.412857 
	C104.571457,52.310646 103.869843,51.882355 103.216919,51.089088 
	C103.926758,51.178341 104.587921,51.632561 105.261078,52.412857 
z"/>
<path fill="#E7EFF2" opacity="1.000000" stroke="none" 
	d="
M196.998703,57.583923 
	C192.120758,57.430328 190.700790,53.429585 189.015076,49.323887 
	C191.640030,51.724747 194.260620,54.497490 196.998703,57.583923 
z"/>
<path fill="#E7EFF2" opacity="1.000000" stroke="none" 
	d="
M187.303650,45.010578 
	C188.161392,43.708515 189.337738,42.422237 190.879028,41.188690 
	C190.437714,42.427284 189.631454,43.613148 188.541962,44.934914 
	C188.046585,45.056004 187.834427,45.041180 187.303650,45.010578 
z"/>
<path fill="#E7EFF2" opacity="1.000000" stroke="none" 
	d="
M193.512207,39.190514 
	C194.238220,38.145493 195.292862,37.082058 196.728333,36.033226 
	C196.019730,37.089256 194.930283,38.130680 193.512207,39.190514 
z"/>
<path fill="#E7EFF2" opacity="1.000000" stroke="none" 
	d="
M191.557190,41.202988 
	C191.654800,40.536514 192.074188,39.838707 192.851227,39.158661 
	C192.765579,39.841496 192.322281,40.506569 191.557190,41.202988 
z"/>
<path fill="#E7EFF2" opacity="1.000000" stroke="none" 
	d="
M54.034744,23.344509 
	C56.307705,25.109667 58.618061,27.218004 60.960815,29.672810 
	C58.686195,27.908747 56.379166,25.798218 54.034744,23.344509 
z"/>
<path fill="#E7EFF2" opacity="1.000000" stroke="none" 
	d="
M62.021069,31.347059 
	C63.788105,32.240021 65.595726,33.473114 67.700546,34.854042 
	C68.001465,35.739220 68.005173,36.476566 68.014366,37.581249 
	C66.033783,35.861458 64.047714,33.774323 62.021069,31.347059 
z"/>
</svg>