#define TheRose_width 202
#define TheRose_height 202
static unsigned char TheRose_bits[] = {
   0x00, 0x00, 0x00, 0x00, 0x00, 0x00, 0x00, 0x00, 0x00, 0x00, 0x00, 0x00,
   0x00, 0x00, 0x00, 0x00, 0x00, 0x00, 0x00, 0x00, 0x00, 0x00, 0x00, 0x00,
   0x00, 0x00, 0x00, 0x00, 0x00, 0x00, 0x00, 0x00, 0x00, 0x00, 0x00, 0x00,
   0x00, 0x00, 0x00, 0x00, 0x00, 0x00, 0x00, 0x00, 0x00, 0x00, 0x00, 0x00,
   0x00, 0x00, 0x00, 0x00, 0x00, 0x00, 0x00, 0x00, 0x00, 0x00, 0x00, 0x00,
   0x00, 0x00, 0x00, 0x00, 0x00, 0x00, 0x00, 0x00, 0x00, 0x00, 0x00, 0x00,
   0x00, 0x00, 0x00, 0x00, 0x00, 0x00, 0x00, 0x00, 0x00, 0x00, 0x00, 0x00,
   0x00, 0x00, 0x00, 0x00, 0x00, 0x00, 0x00, 0x00, 0x00, 0x00, 0x00, 0x00,
   0x00, 0x00, 0x00, 0x00, 0x00, 0x00, 0x00, 0x00, 0x00, 0x00, 0x00, 0x00,
   0x00, 0x00, 0x00, 0x00, 0x00, 0x00, 0x00, 0x00, 0x00, 0x00, 0x00, 0x00,
   0x00, 0x00, 0x00, 0x00, 0x00, 0x00, 0x00, 0x00, 0x00, 0x00, 0x00, 0x00,
   0x00, 0x00, 0x00, 0x00, 0x00, 0x00, 0x00, 0x00, 0x00, 0x00, 0x00, 0x00,
   0x00, 0x00, 0x00, 0x00, 0x00, 0x00, 0x00, 0x00, 0x00, 0x00, 0x00, 0x00,
   0x00, 0x00, 0x00, 0x00, 0x00, 0x00, 0x00, 0x00, 0x00, 0x00, 0x00, 0x00,
   0x00, 0x00, 0x00, 0x00, 0x00, 0x00, 0x00, 0x00, 0x00, 0x00, 0x00, 0x00,
   0x00, 0x00, 0x00, 0x00, 0x00, 0x00, 0x00, 0x00, 0x00, 0x00, 0x00, 0x00,
   0x00, 0x00, 0x00, 0x00, 0x00, 0x00, 0x00, 0x00, 0x00, 0x00, 0x00, 0x00,
   0x00, 0x00, 0x00, 0x00, 0x00, 0x00, 0x00, 0x00, 0x00, 0x00, 0x00, 0x00,
   0x00, 0x00, 0x00, 0x00, 0x00, 0x00, 0x00, 0x00, 0x00, 0x00, 0x00, 0x00,
   0x00, 0x00, 0x00, 0x00, 0x00, 0x00, 0x00, 0x00, 0x00, 0x00, 0x00, 0x00,
   0x00, 0x00, 0x00, 0x00, 0x00, 0x00, 0x00, 0x00, 0x00, 0x00, 0x00, 0x00,
   0x00, 0x00, 0x00, 0x00, 0x00, 0x00, 0x00, 0x00, 0x00, 0x00, 0x00, 0x00,
   0x00, 0x00, 0x00, 0x00, 0x00, 0x00, 0x00, 0x00, 0x00, 0x00, 0x00, 0x00,
   0x00, 0x00, 0x00, 0x00, 0x00, 0x00, 0x00, 0x00, 0x00, 0x00, 0x00, 0x00,
   0x00, 0x00, 0x00, 0x00, 0x00, 0x00, 0x00, 0x00, 0x00, 0x00, 0x00, 0x00,
   0x00, 0x00, 0x00, 0x00, 0x00, 0x00, 0x00, 0x00, 0x00, 0x00, 0x00, 0x00,
   0x00, 0x00, 0x00, 0x00, 0x00, 0x00, 0x00, 0x00, 0x00, 0x00, 0x00, 0x00,
   0x00, 0x00, 0x00, 0x00, 0x00, 0x00, 0x00, 0x00, 0x00, 0x00, 0x00, 0x00,
   0x00, 0x00, 0x00, 0x00, 0x00, 0x00, 0x00, 0x00, 0x00, 0x00, 0x00, 0x00,
   0x00, 0x00, 0x00, 0x00, 0x58, 0x01, 0x00, 0x00, 0x00, 0x00, 0x00, 0x00,
   0x00, 0x00, 0x00, 0x00, 0x00, 0x00, 0x00, 0x00, 0x00, 0x00, 0x00, 0x00,
   0x00, 0x00, 0x00, 0x00, 0x00, 0xe0, 0xa7, 0x1f, 0x00, 0x00, 0x00, 0x00,
   0x00, 0x00, 0x00, 0x00, 0x00, 0x00, 0x00, 0x00, 0x00, 0x00, 0x00, 0x00,
   0x00, 0x00, 0x00, 0x00, 0x00, 0x00, 0x00, 0x1c, 0x00, 0xe0, 0x00, 0x00,
   0x00, 0x00, 0x00, 0x00, 0x00, 0x00, 0x00, 0x00, 0x00, 0x00, 0x00, 0x00,
   0x00, 0x00, 0x00, 0x00, 0x00, 0x00, 0x00, 0x6e, 0x80, 0xff, 0x00, 0x80,
   0x03, 0x00, 0x00, 0x00, 0x00, 0x00, 0x00, 0x00, 0x00, 0x00, 0x00, 0x00,
   0x00, 0x00, 0x00, 0x00, 0x00, 0x00, 0x00, 0x00, 0xc0, 0x85, 0x7f, 0x00,
   0x5f, 0x00, 0x0c, 0x00, 0x00, 0x00, 0x00, 0x00, 0x00, 0x00, 0x00, 0x00,
   0x00, 0x00, 0x00, 0x00, 0x00, 0x00, 0x00, 0x00, 0x00, 0x00, 0x38, 0x00,
   0x06, 0x00, 0xf0, 0x1b, 0x30, 0x00, 0x00, 0x00, 0x00, 0x00, 0x00, 0x00,
   0x00, 0x00, 0x00, 0x00, 0x00, 0x00, 0x00, 0x00, 0x00, 0x00, 0x00, 0x00,
   0x06, 0x80, 0x41, 0x20, 0x80, 0x77, 0x60, 0x00, 0x00, 0x00, 0x00, 0x00,
   0x00, 0x00, 0x00, 0x00, 0x00, 0x00, 0x00, 0x00, 0x00, 0x00, 0x00, 0x00,
   0x00, 0xfa, 0x03, 0x7c, 0x80, 0xae, 0xfa, 0xff, 0x81, 0x00, 0x00, 0x00,
   0x00, 0x00, 0x00, 0x00, 0x00, 0x00, 0x00, 0x00, 0x00, 0x00, 0x00, 0x00,
   0x00, 0x00, 0x80, 0x07, 0x81, 0x3a, 0xb8, 0xfd, 0x07, 0xfe, 0x87, 0x01,
   0x00, 0x00, 0x00, 0x00, 0x00, 0x00, 0x00, 0x00, 0x00, 0x00, 0x00, 0x00,
   0x00, 0x00, 0x00, 0x00, 0xc0, 0x80, 0xe0, 0x0f, 0xd5, 0x3f, 0x00, 0xf0,
   0x0f, 0x02, 0x00, 0x00, 0x00, 0x00, 0x00, 0x00, 0x00, 0x00, 0x00, 0x00,
   0x00, 0x00, 0x00, 0x00, 0x00, 0x00, 0x30, 0x60, 0xe8, 0x2f, 0xff, 0xff,
   0x00, 0x60, 0xf9, 0x04, 0x00, 0x00, 0x00, 0x00, 0x00, 0x00, 0x00, 0x00,
   0x00, 0x00, 0x00, 0x00, 0x00, 0x00, 0x00, 0x00, 0x08, 0x38, 0xfe, 0xeb,
   0xff, 0x80, 0x07, 0xc0, 0x80, 0x19, 0x00, 0x00, 0x00, 0x00, 0x00, 0x00,
   0x00, 0x00, 0x00, 0x00, 0x00, 0x00, 0x00, 0x00, 0x00, 0x00, 0x06, 0xb6,
   0x83, 0x01, 0x9f, 0xe2, 0x1c, 0x00, 0x07, 0xfe, 0x07, 0x00, 0x00, 0x00,
   0x00, 0x00, 0x00, 0x00, 0x00, 0x00, 0x00, 0x00, 0x00, 0x00, 0x00, 0x00,
   0x82, 0x5c, 0x88, 0x09, 0xec, 0x2f, 0x20, 0x00, 0x0f, 0x18, 0x18, 0x00,
   0x00, 0x00, 0x00, 0x00, 0x00, 0x00, 0x00, 0x00, 0x00, 0x00, 0x00, 0x00,
   0x00, 0x80, 0x81, 0x3f, 0xf4, 0x6b, 0xfc, 0x77, 0x40, 0x01, 0x16, 0x70,
   0x31, 0x00, 0x00, 0x00, 0x00, 0x00, 0x00, 0x00, 0x00, 0x00, 0x00, 0x00,
   0x00, 0x00, 0x00, 0x80, 0x30, 0x1f, 0xfb, 0x57, 0x5b, 0x7f, 0x89, 0x06,
   0x5e, 0xa0, 0x40, 0x00, 0x00, 0x00, 0x00, 0x00, 0x00, 0x00, 0x00, 0x00,
   0x00, 0x00, 0x00, 0x00, 0x00, 0x40, 0xe0, 0xa7, 0xfe, 0xff, 0xfb, 0xf7,
   0x83, 0x0e, 0x2e, 0xc0, 0x86, 0x00, 0x00, 0x00, 0x00, 0x00, 0x00, 0x00,
   0x00, 0x00, 0x00, 0x00, 0x00, 0x00, 0x00, 0x40, 0x90, 0x07, 0xff, 0xff,
   0x79, 0xfa, 0x83, 0x37, 0x7c, 0xc0, 0x23, 0x01, 0x00, 0x00, 0x00, 0x00,
   0x00, 0x00, 0x00, 0x00, 0x00, 0x00, 0x00, 0x00, 0x00, 0x20, 0xf0, 0xc3,
   0xff, 0xfd, 0xdd, 0xf4, 0x87, 0x3e, 0x7c, 0x80, 0x3f, 0x03, 0x00, 0x00,
   0x00, 0x00, 0x00, 0x00, 0x00, 0x00, 0x00, 0x00, 0x00, 0x00, 0x00, 0x30,
   0xc0, 0xa3, 0xbf, 0xfb, 0xfd, 0xf0, 0x83, 0x7e, 0xfc, 0x80, 0x0f, 0x02,
   0x00, 0x00, 0x00, 0x00, 0x00, 0x00, 0x00, 0x00, 0x00, 0x00, 0x00, 0x00,
   0x00, 0x10, 0xf8, 0xc1, 0xbf, 0xf3, 0xb1, 0xfe, 0x8f, 0x7f, 0x7e, 0x80,
   0x77, 0x04, 0x00, 0x00, 0x00, 0x00, 0x00, 0x00, 0x00, 0x00, 0x00, 0x00,
   0x00, 0x00, 0x00, 0x10, 0xf4, 0x81, 0x7f, 0xe3, 0xe9, 0xdb, 0xcf, 0x7e,
   0xfe, 0xc1, 0x1e, 0x04, 0x00, 0x00, 0x00, 0x00, 0x00, 0x00, 0x00, 0x00,
   0x00, 0x00, 0x00, 0x00, 0x00, 0x08, 0xc0, 0xe0, 0x7f, 0xa1, 0xff, 0xbb,
   0xef, 0x7f, 0xfe, 0x62, 0x70, 0x08, 0x00, 0x00, 0x00, 0x00, 0x00, 0x00,
   0x00, 0x00, 0x00, 0x00, 0x00, 0x00, 0x00, 0x08, 0xfe, 0xc0, 0x7f, 0xc2,
   0xbe, 0xff, 0xff, 0x3e, 0xff, 0x21, 0xc0, 0x09, 0x00, 0x00, 0x00, 0x00,
   0x00, 0x00, 0x00, 0x00, 0x00, 0x00, 0x00, 0x00, 0x00, 0x08, 0xf8, 0x80,
   0x7f, 0x84, 0xff, 0xf7, 0xf7, 0x3f, 0xff, 0x18, 0x00, 0x1b, 0x00, 0x00,
   0x00, 0x00, 0x00, 0x00, 0x00, 0x00, 0x00, 0x00, 0x00, 0x00, 0x00, 0x08,
   0xc0, 0xc0, 0xff, 0xcc, 0xff, 0xff, 0xfb, 0x9e, 0x7f, 0x4c, 0x00, 0x14,
   0x00, 0x00, 0x00, 0x00, 0x00, 0x00, 0x00, 0x00, 0x00, 0x00, 0x00, 0x00,
   0x00, 0x04, 0xfc, 0xc0, 0xff, 0x98, 0xff, 0x0b, 0xfc, 0xc6, 0x1e, 0x2f,
   0x01, 0x18, 0x00, 0x00, 0x00, 0x00, 0x00, 0x00, 0x00, 0x00, 0x00, 0x00,
   0x00, 0x00, 0x00, 0x04, 0xf8, 0x80, 0xff, 0xe1, 0x97, 0x02, 0xfb, 0xe3,
   0xcf, 0xb7, 0x04, 0x18, 0x00, 0x00, 0x00, 0x00, 0x00, 0x00, 0x00, 0x00,
   0x00, 0x00, 0x00, 0x00, 0x00, 0x04, 0xc0, 0x81, 0xff, 0xc1, 0xff, 0x05,
   0xfe, 0xe0, 0xf3, 0xff, 0x02, 0x30, 0x00, 0x00, 0x00, 0x00, 0x00, 0x00,
   0x00, 0x00, 0x00, 0x00, 0x00, 0x00, 0x00, 0x04, 0xf0, 0x00, 0xfe, 0x03,
   0xff, 0x00, 0x1f, 0x78, 0xbd, 0x7f, 0x03, 0x20, 0x00, 0x00, 0x00, 0x00,
   0x00, 0x00, 0x00, 0x00, 0x00, 0x00, 0x00, 0x00, 0x00, 0x04, 0xe2, 0x01,
   0xf0, 0x07, 0xfc, 0xff, 0x02, 0xfc, 0xdf, 0xff, 0x01, 0x20, 0x00, 0x00,
   0x00, 0x00, 0x00, 0x00, 0x00, 0x00, 0x00, 0x00, 0x00, 0x00, 0x00, 0x04,
   0x00, 0x03, 0x00, 0x1e, 0x40, 0x01, 0x00, 0xff, 0xff, 0xff, 0x00, 0x20,
   0x00, 0x00, 0x00, 0x00, 0x00, 0x00, 0x00, 0x00, 0x00, 0x00, 0x00, 0x00,
   0x00, 0x08, 0xe0, 0x07, 0x00, 0x30, 0x00, 0x00, 0xc0, 0xff, 0xdf, 0xff,
   0x00, 0x20, 0x00, 0x00, 0x00, 0x00, 0x00, 0x00, 0x00, 0x00, 0x00, 0x00,
   0x00, 0x00, 0x00, 0x08, 0xf0, 0x0f, 0x00, 0xc0, 0x00, 0x00, 0xf0, 0xff,
   0xff, 0x7f, 0x00, 0x20, 0x00, 0x00, 0x00, 0x00, 0x00, 0x00, 0x00, 0x00,
   0x00, 0x00, 0x00, 0x00, 0x00, 0x08, 0x00, 0x3e, 0x00, 0xca, 0x4f, 0x00,
   0xcc, 0xff, 0xff, 0x7f, 0x00, 0x20, 0x00, 0x00, 0x00, 0x00, 0x00, 0x00,
   0x00, 0x00, 0x00, 0x00, 0x00, 0x00, 0x00, 0x08, 0x00, 0xfc, 0xf7, 0xfd,
   0xff, 0xff, 0x1f, 0xff, 0xdf, 0x3f, 0x00, 0x10, 0x00, 0x00, 0x00, 0x00,
   0x00, 0x00, 0x00, 0x00, 0x00, 0x00, 0x00, 0x00, 0x00, 0x10, 0xc0, 0xff,
   0x31, 0xce, 0xfd, 0xff, 0xff, 0xfc, 0xff, 0x7f, 0x00, 0x10, 0x00, 0x00,
   0x00, 0x00, 0x00, 0x00, 0x00, 0x00, 0x00, 0x00, 0x00, 0x00, 0x00, 0x10,
   0x80, 0xfe, 0x81, 0x70, 0xbe, 0xff, 0xff, 0xfb, 0xdf, 0x1f, 0x00, 0x18,
   0x00, 0x00, 0x00, 0x00, 0x00, 0x00, 0x00, 0x00, 0x00, 0x00, 0x00, 0x00,
   0x00, 0x20, 0x00, 0xe0, 0x01, 0x00, 0xe3, 0xff, 0xff, 0xe7, 0xff, 0x0f,
   0x00, 0x1c, 0x00, 0x00, 0x00, 0x00, 0x00, 0x00, 0x00, 0x00, 0x00, 0x00,
   0x00, 0x00, 0x00, 0x20, 0x00, 0x00, 0x03, 0x80, 0x30, 0xfe, 0xff, 0xdf,
   0xff, 0x0f, 0x00, 0x0c, 0x00, 0x00, 0x00, 0x00, 0x00, 0x00, 0x00, 0x00,
   0x00, 0x00, 0x00, 0x00, 0x00, 0x40, 0x00, 0x00, 0x0e, 0x00, 0x8c, 0xe3,
   0xff, 0xbf, 0xff, 0x03, 0x00, 0x0a, 0x00, 0x00, 0x00, 0x00, 0x00, 0x00,
   0x00, 0x00, 0x00, 0x00, 0x00, 0x00, 0x00, 0xc0, 0x00, 0x00, 0x10, 0x00,
   0xc0, 0xf8, 0xfe, 0x7f, 0xff, 0x01, 0x00, 0x0b, 0x00, 0x00, 0x00, 0x00,
   0x00, 0x00, 0x00, 0x00, 0x00, 0x00, 0x00, 0x00, 0x00, 0x00, 0x01, 0x00,
   0xe0, 0x00, 0x10, 0x9e, 0xff, 0xff, 0xff, 0x00, 0x80, 0x05, 0x00, 0x00,
   0x00, 0x00, 0x00, 0x00, 0x00, 0x00, 0x00, 0x00, 0x00, 0x00, 0x00, 0x00,
   0x03, 0x00, 0x80, 0x01, 0x00, 0xc1, 0xff, 0xff, 0x3e, 0x00, 0xe0, 0x04,
   0x00, 0x00, 0x00, 0x00, 0x00, 0x00, 0x00, 0x00, 0x00, 0x00, 0x00, 0x00,
   0x00, 0x00, 0xac, 0xfd, 0x0b, 0x03, 0x00, 0x70, 0xf8, 0xff, 0x0f, 0x00,
   0x70, 0x02, 0x00, 0x00, 0x00, 0x00, 0x00, 0x00, 0x00, 0x00, 0x00, 0x00,
   0x00, 0x00, 0x00, 0x00, 0xf0, 0x03, 0x7c, 0x0c, 0x00, 0x08, 0xfe, 0xff,
   0x07, 0x00, 0x78, 0x01, 0x00, 0x00, 0x00, 0x00, 0x00, 0x00, 0x00, 0x00,
   0x00, 0x00, 0x00, 0x00, 0x00, 0x00, 0x38, 0x02, 0xfe, 0x1b, 0x00, 0x80,
   0xc7, 0xff, 0x00, 0x00, 0x9e, 0x01, 0x00, 0x00, 0x00, 0x00, 0x00, 0x00,
   0x00, 0x00, 0x00, 0x00, 0x00, 0x00, 0x00, 0x00, 0x06, 0x03, 0xf0, 0x77,
   0x00, 0xc0, 0xf0, 0x3f, 0x00, 0x00, 0x9f, 0x00, 0x00, 0x00, 0x00, 0x00,
   0x00, 0x00, 0x00, 0x00, 0x00, 0x00, 0x00, 0x00, 0x00, 0x00, 0x41, 0x02,
   0xfc, 0xdf, 0x40, 0x20, 0xfc, 0x07, 0x00, 0xc0, 0x67, 0x00, 0x00, 0x00,
   0x00, 0x00, 0x00, 0x00, 0x00, 0x00, 0x00, 0x00, 0x00, 0x00, 0x00, 0x80,
   0xc0, 0x03, 0xd0, 0xff, 0x03, 0x00, 0x3f, 0x00, 0x00, 0xf0, 0x33, 0x00,
   0x00, 0x00, 0x00, 0x00, 0x00, 0x00, 0x00, 0x00, 0x00, 0x00, 0x00, 0x00,
   0x00, 0x80, 0x80, 0x01, 0xf0, 0xff, 0x0f, 0xfd, 0x02, 0x00, 0x00, 0xfc,
   0x18, 0x00, 0x00, 0x00, 0x00, 0x00, 0x00, 0x00, 0x00, 0x00, 0x00, 0x00,
   0x00, 0x00, 0x00, 0xc0, 0x40, 0x01, 0xb8, 0xff, 0x7f, 0x05, 0x00, 0x00,
   0x00, 0x7f, 0x06, 0x00, 0x00, 0x00, 0x00, 0x00, 0x00, 0x00, 0x00, 0x00,
   0x00, 0x00, 0x00, 0x00, 0x00, 0x40, 0xc0, 0x01, 0xe0, 0x7f, 0x01, 0x00,
   0x00, 0x00, 0xe0, 0x3d, 0x03, 0x00, 0x00, 0x00, 0x00, 0x00, 0x00, 0x00,
   0x00, 0x00, 0x00, 0x00, 0x00, 0x00, 0x00, 0x40, 0x80, 0x01, 0xf0, 0x01,
   0x00, 0x00, 0x00, 0x00, 0xfc, 0x9f, 0x01, 0x00, 0x00, 0x00, 0x00, 0x00,
   0x00, 0x00, 0x00, 0x00, 0x00, 0x00, 0x00, 0x00, 0x00, 0x40, 0xc0, 0x01,
   0x1c, 0x00, 0x00, 0x00, 0x00, 0xe0, 0x7f, 0x67, 0x01, 0x00, 0x00, 0x00,
   0x00, 0x00, 0x00, 0x00, 0x00, 0x00, 0x00, 0x00, 0x00, 0x00, 0x00, 0x40,
   0x80, 0x01, 0x02, 0xfd, 0x6f, 0xa1, 0xf0, 0xff, 0x7f, 0x33, 0x01, 0x00,
   0x00, 0x00, 0x00, 0x00, 0x00, 0x00, 0x00, 0x00, 0x00, 0x00, 0x00, 0x00,
   0x00, 0x40, 0x80, 0x01, 0xe1, 0xff, 0xff, 0xff, 0xff, 0xff, 0xbf, 0x09,
   0x01, 0x00, 0x00, 0x00, 0x00, 0x00, 0x00, 0x00, 0x00, 0x00, 0x00, 0x00,
   0x00, 0x00, 0x00, 0x80, 0x80, 0x81, 0xf8, 0xff, 0xff, 0xff, 0xff, 0xff,
   0xdf, 0x04, 0x01, 0x00, 0x00, 0x00, 0x00, 0x00, 0x00, 0x00, 0x00, 0x00,
   0x00, 0x00, 0x00, 0x00, 0x00, 0x80, 0x81, 0x81, 0xfe, 0xef, 0xff, 0xff,
   0xff, 0xff, 0x6f, 0x03, 0x01, 0x00, 0x00, 0x00, 0x00, 0x00, 0x00, 0x00,
   0x00, 0x00, 0x00, 0x00, 0x00, 0x00, 0x00, 0x00, 0x03, 0x43, 0xbf, 0xf3,
   0xfe, 0xff, 0xff, 0xff, 0xaf, 0x01, 0x01, 0x00, 0x00, 0x00, 0x00, 0x00,
   0x00, 0x00, 0x00, 0x00, 0x00, 0x00, 0x00, 0x00, 0x00, 0x00, 0x02, 0xfe,
   0xcf, 0x3d, 0xef, 0xff, 0xff, 0xff, 0xb7, 0x00, 0x02, 0x00, 0x00, 0x00,
   0x00, 0x00, 0x00, 0x00, 0x00, 0x00, 0x00, 0x00, 0x00, 0x00, 0x00, 0x00,
   0x0c, 0xfc, 0xef, 0x9d, 0xf3, 0xff, 0xff, 0xff, 0x5f, 0x00, 0x02, 0x00,
   0x00, 0x00, 0x00, 0x00, 0x00, 0x00, 0x00, 0x00, 0x00, 0x00, 0x00, 0x00,
   0x00, 0x00, 0x18, 0xf8, 0xff, 0xde, 0xb9, 0xff, 0xff, 0xff, 0x29, 0x00,
   0x02, 0x00, 0x00, 0x00, 0x00, 0x00, 0x00, 0x00, 0x00, 0x00, 0x00, 0x00,
   0x00, 0x00, 0x00, 0x00, 0x60, 0xc0, 0xff, 0xff, 0xdd, 0xf7, 0xff, 0xff,
   0x15, 0x00, 0x03, 0x00, 0x00, 0x00, 0x00, 0x00, 0x00, 0x00, 0x00, 0x00,
   0x00, 0x00, 0x00, 0x00, 0x00, 0x00, 0xc0, 0x03, 0xfa, 0xff, 0xdf, 0xfd,
   0xff, 0xff, 0x1f, 0x00, 0x01, 0x00, 0x00, 0x00, 0x00, 0x00, 0x00, 0x00,
   0x00, 0x00, 0x00, 0x00, 0x00, 0x00, 0x00, 0x00, 0x80, 0x3e, 0x80, 0xfe,
   0xff, 0xbd, 0xff, 0xff, 0x0a, 0x20, 0x03, 0x00, 0x00, 0x00, 0x00, 0x00,
   0x00, 0x00, 0x00, 0x00, 0x00, 0x00, 0x00, 0x00, 0x00, 0x00, 0x80, 0xfc,
   0x3f, 0x00, 0xff, 0xdf, 0xff, 0xff, 0x06, 0x21, 0x01, 0x00, 0x00, 0x00,
   0x00, 0x00, 0x00, 0x00, 0x00, 0x00, 0x00, 0x00, 0x00, 0x00, 0x00, 0x00,
   0x80, 0xf8, 0xff, 0x7f, 0xd0, 0xff, 0xfd, 0x7f, 0x23, 0x24, 0x03, 0x00,
   0x00, 0x00, 0x00, 0x00, 0x00, 0x00, 0x00, 0x00, 0x00, 0x00, 0x00, 0x00,
   0x00, 0x00, 0x80, 0xb0, 0xdf, 0xff, 0x2f, 0xff, 0xff, 0x7f, 0xa3, 0x24,
   0x03, 0x00, 0x00, 0x00, 0x00, 0x00, 0x00, 0x00, 0x00, 0x00, 0x00, 0x00,
   0x00, 0x00, 0x00, 0x00, 0x80, 0x20, 0xbb, 0xdd, 0xff, 0xf5, 0xff, 0xbf,
   0xb1, 0x14, 0x01, 0x00, 0x00, 0x00, 0x00, 0x00, 0x00, 0x00, 0x00, 0x00,
   0x00, 0x00, 0x00, 0x00, 0x00, 0x00, 0x00, 0x21, 0xb2, 0xdb, 0xfd, 0xef,
   0xff, 0xff, 0x95, 0xb4, 0x03, 0x00, 0x00, 0x00, 0x00, 0x00, 0x00, 0x00,
   0x00, 0x00, 0x00, 0x00, 0x00, 0x00, 0x00, 0x00, 0x80, 0x00, 0x22, 0x32,
   0xd9, 0xff, 0xff, 0xbf, 0xd5, 0x96, 0x81, 0x00, 0x00, 0x00, 0x00, 0x00,
   0x00, 0x00, 0x00, 0x00, 0x00, 0x00, 0x00, 0x00, 0x00, 0x00, 0x00, 0x01,
   0x40, 0x22, 0x9b, 0xfd, 0xff, 0xdf, 0xdb, 0x92, 0x81, 0x00, 0x00, 0x00,
   0x00, 0x00, 0x00, 0x00, 0x00, 0x00, 0x00, 0x00, 0x00, 0x00, 0x00, 0x00,
   0x00, 0x01, 0x00, 0x20, 0x30, 0xed, 0xff, 0xff, 0xdf, 0xda, 0x81, 0x00,
   0x00, 0x00, 0x00, 0x00, 0x00, 0x00, 0x00, 0x00, 0x00, 0x00, 0x00, 0x00,
   0x00, 0x00, 0x00, 0x01, 0x00, 0x00, 0x00, 0xc9, 0xfe, 0xef, 0xff, 0x5b,
   0xc1, 0x00, 0x00, 0x00, 0x00, 0x00, 0x00, 0x00, 0x00, 0x00, 0x00, 0x00,
   0x00, 0x00, 0x00, 0x00, 0x00, 0x02, 0x00, 0x00, 0x00, 0x90, 0xfe, 0xff,
   0x7f, 0xdb, 0x81, 0x01, 0x00, 0x00, 0x00, 0x00, 0x00, 0x00, 0x00, 0x00,
   0x00, 0x00, 0x00, 0x00, 0x00, 0x00, 0x00, 0x02, 0x00, 0x00, 0x00, 0x80,
   0xec, 0xff, 0xff, 0xed, 0x40, 0x01, 0x00, 0x00, 0x00, 0x00, 0x00, 0x00,
   0x00, 0x00, 0x00, 0x00, 0x00, 0x00, 0x00, 0x00, 0x00, 0x02, 0x00, 0x00,
   0x00, 0x00, 0xe8, 0xf7, 0xff, 0xaf, 0xa0, 0x00, 0x00, 0x00, 0x00, 0x00,
   0x00, 0x00, 0x00, 0x00, 0x00, 0x00, 0x00, 0x00, 0x00, 0x00, 0x00, 0x86,
   0x00, 0x00, 0x00, 0x00, 0xc8, 0xff, 0xff, 0xf7, 0xf0, 0x00, 0x00, 0x00,
   0x00, 0x00, 0x00, 0x00, 0x00, 0x00, 0x00, 0x00, 0x00, 0x00, 0x00, 0x00,
   0x00, 0x04, 0x00, 0x00, 0x00, 0x00, 0x80, 0xfb, 0xff, 0x76, 0xe8, 0x00,
   0x00, 0x00, 0x00, 0x00, 0x00, 0x00, 0x00, 0x00, 0x00, 0x00, 0x00, 0x00,
   0x00, 0x00, 0x00, 0x84, 0x00, 0x00, 0x00, 0x00, 0x80, 0xfe, 0xff, 0xdf,
   0xb6, 0x00, 0x00, 0x00, 0x00, 0x00, 0x00, 0x00, 0x00, 0x00, 0x00, 0x00,
   0x00, 0x00, 0x00, 0x00, 0x00, 0x88, 0x00, 0x00, 0x00, 0x00, 0x00, 0xf6,
   0xff, 0xfb, 0x7b, 0x00, 0x00, 0x00, 0x00, 0x00, 0x00, 0x00, 0x00, 0x00,
   0x00, 0x00, 0x00, 0x00, 0x00, 0x00, 0x00, 0x08, 0x01, 0x00, 0x00, 0x00,
   0x00, 0xfe, 0xff, 0x3f, 0x5f, 0x00, 0x00, 0x00, 0x00, 0x00, 0x00, 0x00,
   0x00, 0x00, 0x00, 0x00, 0x00, 0x00, 0x00, 0x00, 0xf8, 0x1f, 0x11, 0x00,
   0x00, 0x00, 0x80, 0xfc, 0xff, 0xef, 0x35, 0x00, 0x00, 0x00, 0x00, 0x00,
   0x00, 0x00, 0x00, 0x00, 0x00, 0x00, 0x00, 0x00, 0x00, 0x00, 0x3e, 0x1c,
   0x13, 0x00, 0x00, 0x00, 0x00, 0xfd, 0xff, 0xff, 0xdf, 0x00, 0x00, 0x00,
   0x00, 0x00, 0x00, 0x00, 0x00, 0x00, 0x00, 0x00, 0x00, 0x00, 0x00, 0x80,
   0xc3, 0x3b, 0x13, 0x00, 0x00, 0x00, 0x00, 0xed, 0xff, 0xf7, 0xbf, 0x01,
   0x00, 0x00, 0x00, 0x00, 0x00, 0x00, 0x00, 0x00, 0x00, 0x00, 0x00, 0x00,
   0x00, 0x00, 0x00, 0x36, 0x27, 0x00, 0x00, 0x00, 0x40, 0xfb, 0xff, 0xfb,
   0xff, 0x02, 0x00, 0x00, 0x00, 0x00, 0x00, 0x00, 0x00, 0x00, 0x00, 0x00,
   0x00, 0x00, 0x00, 0x00, 0x00, 0x78, 0x36, 0x02, 0x00, 0x00, 0x48, 0xde,
   0xff, 0xff, 0xff, 0x05, 0x00, 0x00, 0x00, 0x00, 0x00, 0x00, 0x00, 0x00,
   0x00, 0x00, 0x00, 0x00, 0x00, 0x00, 0x00, 0xf0, 0x6e, 0x02, 0x00, 0x00,
   0xc8, 0xfe, 0xff, 0xfd, 0xff, 0x0d, 0x00, 0x00, 0x00, 0x00, 0x00, 0x00,
   0x00, 0x00, 0x00, 0x00, 0x00, 0x00, 0x00, 0x00, 0x00, 0xb0, 0x7c, 0x26,
   0x02, 0x00, 0xd1, 0xde, 0xff, 0xfe, 0xff, 0x0b, 0x00, 0x00, 0x00, 0x00,
   0x00, 0x00, 0x00, 0x00, 0x00, 0x00, 0x00, 0x00, 0x00, 0x00, 0x00, 0xe0,
   0xfd, 0x24, 0x00, 0x20, 0x91, 0xfd, 0x7f, 0xff, 0xff, 0x17, 0x00, 0x00,
   0x00, 0x00, 0x00, 0x00, 0x00, 0x00, 0x00, 0x00, 0x00, 0x00, 0x00, 0x00,
   0x00, 0x40, 0xfb, 0x46, 0x46, 0x22, 0xb2, 0xff, 0x7f, 0xff, 0xff, 0x0f,
   0x00, 0x00, 0x00, 0x00, 0x00, 0x00, 0x00, 0x00, 0x00, 0x00, 0x00, 0x00,
   0x00, 0x00, 0x00, 0x80, 0xff, 0x4d, 0x44, 0x64, 0x76, 0xdf, 0xdf, 0xdf,
   0xff, 0x3f, 0x00, 0x00, 0x00, 0x00, 0x00, 0x00, 0x00, 0x00, 0x00, 0x00,
   0x00, 0x00, 0x80, 0x5f, 0x00, 0x00, 0xee, 0xdb, 0x4c, 0x44, 0xe6, 0xff,
   0xdf, 0x53, 0xf9, 0x3f, 0x00, 0x00, 0x00, 0x00, 0x00, 0x00, 0x00, 0x00,
   0x00, 0x00, 0x00, 0x00, 0x40, 0xc0, 0x07, 0x80, 0xfb, 0xdf, 0xcc, 0xcc,
   0xee, 0xdf, 0x6f, 0xbe, 0xee, 0x7f, 0x00, 0x00, 0x00, 0x00, 0x00, 0x00,
   0x00, 0x00, 0x00, 0x00, 0x00, 0x00, 0xf0, 0x0f, 0xf8, 0x7b, 0xbc, 0xbf,
   0x99, 0xdd, 0xdd, 0xdf, 0xdb, 0x01, 0xb0, 0xbf, 0x00, 0x00, 0x00, 0x00,
   0x00, 0x00, 0x00, 0x00, 0x00, 0x00, 0x00, 0x00, 0x50, 0xb8, 0x17, 0x84,
   0xff, 0xff, 0x9b, 0x99, 0xfd, 0xff, 0x3d, 0x00, 0x40, 0xbf, 0x00, 0x00,
   0x00, 0x00, 0x00, 0x00, 0x00, 0x00, 0x00, 0x00, 0x00, 0x00, 0x38, 0x60,
   0x7f, 0x00, 0xfe, 0xfd, 0xb7, 0xbb, 0xfb, 0xf7, 0x0e, 0x00, 0x80, 0xfe,
   0x01, 0x00, 0x00, 0x00, 0x00, 0x00, 0x00, 0x00, 0x00, 0x00, 0x00, 0x00,
   0x18, 0xc0, 0x7e, 0x80, 0xfe, 0xff, 0x7f, 0xf7, 0xff, 0x37, 0x03, 0x00,
   0x00, 0x7d, 0x03, 0x80, 0x00, 0x00, 0x00, 0x00, 0x00, 0x00, 0x00, 0x00,
   0x00, 0x00, 0x18, 0x00, 0xff, 0x00, 0xfe, 0xef, 0xff, 0xfe, 0xff, 0xdb,
   0x01, 0x00, 0x00, 0xfa, 0x02, 0x60, 0x00, 0x00, 0x00, 0x00, 0x00, 0x00,
   0x00, 0x00, 0x00, 0x00, 0x18, 0x00, 0xfc, 0x01, 0xf4, 0xff, 0xff, 0xff,
   0xff, 0xfd, 0x00, 0x00, 0x00, 0xfc, 0x0d, 0x38, 0x00, 0x00, 0x00, 0x00,
   0x00, 0x00, 0x00, 0x00, 0x00, 0x00, 0x18, 0x00, 0xd8, 0x80, 0xf8, 0xff,
   0xfe, 0xff, 0xff, 0x5f, 0x00, 0x00, 0x00, 0xf8, 0x3b, 0x1d, 0x00, 0x00,
   0x00, 0x00, 0x00, 0x00, 0x00, 0x00, 0x00, 0x00, 0x10, 0x00, 0xe0, 0x01,
   0xd0, 0x9f, 0xff, 0xff, 0xbf, 0x2f, 0x00, 0x00, 0x00, 0xf0, 0xdf, 0x09,
   0x00, 0x00, 0x00, 0x00, 0x00, 0x00, 0x00, 0x00, 0x00, 0x00, 0x00, 0x00,
   0x00, 0x03, 0xe0, 0x75, 0xd0, 0xff, 0xfb, 0x1f, 0x00, 0x00, 0x00, 0xe0,
   0x7f, 0x07, 0x00, 0x00, 0x00, 0x00, 0x00, 0x00, 0x00, 0x00, 0x00, 0x00,
   0x00, 0x00, 0x00, 0x1e, 0x18, 0x0f, 0x00, 0xe5, 0xff, 0x1f, 0x00, 0x00,
   0x00, 0x80, 0xdb, 0x03, 0x00, 0x00, 0x00, 0x00, 0x00, 0x00, 0x00, 0x00,
   0x00, 0x00, 0x00, 0x00, 0x00, 0xf0, 0xef, 0x00, 0x01, 0x41, 0xff, 0x1f,
   0x00, 0x00, 0x00, 0x00, 0x76, 0x00, 0x00, 0x00, 0x00, 0x00, 0x00, 0x00,
   0x00, 0x00, 0x00, 0x00, 0x00, 0x00, 0x00, 0x00, 0x00, 0x00, 0x00, 0xc1,
   0xff, 0x17, 0x00, 0x00, 0x00, 0x00, 0x00, 0x00, 0x00, 0x00, 0x00, 0x00,
   0x00, 0x00, 0x00, 0x00, 0x00, 0x00, 0x00, 0x00, 0x00, 0x00, 0x00, 0x00,
   0x00, 0xc1, 0xff, 0x0f, 0x00, 0x00, 0x00, 0x00, 0x00, 0x00, 0x00, 0x00,
   0x00, 0x00, 0x00, 0x00, 0x00, 0x00, 0x00, 0x00, 0x00, 0x00, 0x00, 0x00,
   0x00, 0x00, 0x00, 0xe5, 0xfe, 0x17, 0x00, 0x00, 0x00, 0x00, 0x00, 0x00,
   0x00, 0x00, 0x00, 0x00, 0x00, 0x00, 0x00, 0x00, 0x00, 0x00, 0x00, 0x00,
   0x00, 0x00, 0x00, 0x00, 0x00, 0xc1, 0xff, 0x1f, 0x00, 0x00, 0x00, 0x00,
   0x00, 0x00, 0x00, 0x00, 0x00, 0x00, 0x00, 0x00, 0x00, 0x00, 0x00, 0x00,
   0x00, 0x00, 0x00, 0x00, 0x00, 0x00, 0x00, 0xe1, 0xfd, 0x3f, 0x00, 0x00,
   0x00, 0x00, 0x00, 0x00, 0x00, 0x00, 0x00, 0x00, 0x00, 0x00, 0x00, 0x00,
   0x00, 0x00, 0x00, 0x00, 0x00, 0x00, 0x00, 0x00, 0x00, 0xc1, 0xff, 0x2f,
   0x00, 0x00, 0x00, 0x00, 0x00, 0x00, 0x00, 0x00, 0x00, 0x00, 0x00, 0x00,
   0x00, 0x00, 0x00, 0x00, 0x00, 0x00, 0x00, 0x00, 0x00, 0x00, 0x00, 0xe1,
   0xff, 0x5f, 0x00, 0x00, 0x00, 0x00, 0x00, 0x00, 0x00, 0x00, 0x00, 0x00,
   0x00, 0x00, 0x00, 0x00, 0x00, 0x00, 0x00, 0x00, 0x00, 0x00, 0x00, 0x00,
   0x00, 0xc1, 0xed, 0x7f, 0x00, 0x00, 0x00, 0x00, 0x00, 0x00, 0x00, 0x00,
   0x00, 0x00, 0x00, 0x00, 0x00, 0x00, 0x00, 0x00, 0x00, 0x00, 0x00, 0x00,
   0x00, 0x00, 0x00, 0xe0, 0xff, 0x97, 0x01, 0x00, 0x00, 0x00, 0x00, 0x00,
   0x00, 0x00, 0x00, 0x00, 0x00, 0x00, 0x00, 0x00, 0x00, 0x00, 0x00, 0x00,
   0x00, 0x00, 0x00, 0x00, 0x00, 0xc1, 0x93, 0x07, 0x03, 0x00, 0x00, 0x00,
   0x00, 0x00, 0x00, 0x00, 0x00, 0x00, 0x00, 0x00, 0x00, 0x00, 0x00, 0x00,
   0x00, 0x00, 0x00, 0x00, 0x00, 0x00, 0x00, 0xe1, 0x67, 0x0b, 0x02, 0x00,
   0x00, 0x00, 0x00, 0x00, 0x00, 0x00, 0x00, 0x00, 0x00, 0x00, 0x00, 0x00,
   0x00, 0x00, 0x00, 0x00, 0x00, 0x00, 0x00, 0x00, 0x00, 0xc1, 0x85, 0x07,
   0x04, 0x00, 0x00, 0x00, 0x00, 0x00, 0x00, 0x00, 0x00, 0x00, 0x00, 0x00,
   0x00, 0x00, 0x00, 0x00, 0x00, 0x00, 0x00, 0x00, 0x00, 0x00, 0x00, 0xe1,
   0x05, 0x0c, 0x0c, 0x00, 0x00, 0x00, 0x00, 0x00, 0x00, 0x00, 0x00, 0x00,
   0x00, 0x00, 0x00, 0x00, 0x00, 0x00, 0x00, 0x00, 0x00, 0x00, 0x00, 0x00,
   0x00, 0xc1, 0x07, 0x30, 0x08, 0x00, 0x00, 0x00, 0x00, 0x00, 0x00, 0x00,
   0x00, 0x00, 0x00, 0x00, 0x00, 0x00, 0x00, 0x00, 0x00, 0x00, 0x00, 0x00,
   0x00, 0x00, 0x00, 0xc1, 0x05, 0x40, 0x08, 0x00, 0x00, 0x00, 0x00, 0x00,
   0x00, 0x00, 0x00, 0x00, 0x00, 0x00, 0x00, 0x00, 0x00, 0x00, 0x00, 0x00,
   0x00, 0x00, 0x00, 0x00, 0x00, 0xc1, 0x07, 0x40, 0x08, 0x00, 0x00, 0x00,
   0x00, 0x00, 0x00, 0x00, 0x00, 0x00, 0x00, 0x00, 0x00, 0x00, 0x00, 0x00,
   0x00, 0x00, 0x00, 0x00, 0x00, 0x00, 0x00, 0xc1, 0x05, 0x80, 0x0a, 0x00,
   0x00, 0x00, 0x00, 0x00, 0x00, 0x00, 0x00, 0x00, 0x00, 0x00, 0x00, 0x00,
   0x00, 0x00, 0x00, 0x00, 0x00, 0x00, 0x00, 0x00, 0x00, 0xc1, 0x07, 0x80,
   0x06, 0x00, 0x00, 0x00, 0x00, 0x00, 0x00, 0x00, 0x00, 0x00, 0x00, 0x00,
   0x00, 0x00, 0x00, 0x00, 0x00, 0x00, 0x00, 0x00, 0x00, 0x00, 0x00, 0xc1,
   0x07, 0x80, 0x0e, 0x00, 0x00, 0x00, 0x00, 0x00, 0x00, 0x00, 0x00, 0x00,
   0x00, 0x00, 0x00, 0x00, 0x00, 0x00, 0x00, 0x00, 0x00, 0x00, 0x00, 0x00,
   0x00, 0xc1, 0x03, 0xc0, 0x07, 0x00, 0x00, 0x00, 0x00, 0x00, 0x00, 0x00,
   0x00, 0x00, 0x00, 0x00, 0x00, 0x00, 0x00, 0x00, 0x00, 0x00, 0x00, 0x00,
   0x00, 0x00, 0x00, 0xc1, 0x07, 0x00, 0x0f, 0x00, 0x00, 0x00, 0x00, 0x00,
   0x00, 0x00, 0x00, 0x00, 0x00, 0x00, 0x00, 0x00, 0x00, 0x00, 0x00, 0x00,
   0x00, 0x00, 0x00, 0x00, 0x00, 0xc1, 0x07, 0x80, 0x03, 0x00, 0x00, 0x00,
   0x00, 0x00, 0x00, 0x00, 0x00, 0x00, 0x00, 0x00, 0x00, 0x00, 0x00, 0x00,
   0x00, 0x00, 0x00, 0x00, 0x00, 0x00, 0x00, 0xc1, 0x0f, 0x80, 0x07, 0x00,
   0x00, 0x00, 0x00, 0x00, 0x00, 0x00, 0x00, 0x00, 0x00, 0x00, 0x00, 0x00,
   0x00, 0x00, 0x00, 0x00, 0x00, 0x00, 0x00, 0xe0, 0x00, 0xc1, 0x07, 0x80,
   0x07, 0x00, 0x00, 0x00, 0x00, 0x00, 0x00, 0x00, 0x00, 0x00, 0x00, 0x00,
   0x00, 0x00, 0x00, 0x00, 0x00, 0x00, 0x00, 0x00, 0x00, 0xb0, 0x00, 0xc3,
   0x0f, 0x80, 0x05, 0x00, 0x00, 0x00, 0x00, 0x00, 0x00, 0x00, 0x00, 0x00,
   0x00, 0x00, 0x00, 0x00, 0x00, 0x00, 0x00, 0x00, 0x00, 0x00, 0x00, 0x98,
   0x01, 0xc2, 0x0b, 0x00, 0x07, 0x00, 0x00, 0x00, 0x00, 0x00, 0x00, 0x00,
   0x00, 0x00, 0x00, 0x00, 0x00, 0x00, 0x00, 0x00, 0x00, 0x00, 0x00, 0x00,
   0x00, 0x05, 0x05, 0xc1, 0x0b, 0x00, 0x05, 0x00, 0x00, 0x00, 0x00, 0x00,
   0x00, 0x00, 0x00, 0x00, 0x00, 0x00, 0x00, 0x00, 0x00, 0x00, 0x00, 0x00,
   0x00, 0x00, 0x80, 0x47, 0x07, 0x82, 0x07, 0x00, 0x0d, 0x00, 0x00, 0x00,
   0x00, 0x00, 0x00, 0x00, 0x00, 0x00, 0x00, 0x00, 0x00, 0x00, 0x00, 0x00,
   0x00, 0x00, 0x00, 0x00, 0x40, 0x43, 0x06, 0xc2, 0x0f, 0x00, 0x1a, 0x00,
   0x00, 0x00, 0x00, 0x00, 0x00, 0x00, 0x00, 0x00, 0x00, 0x00, 0x00, 0x00,
   0x00, 0x00, 0x00, 0x00, 0x00, 0x00, 0x60, 0x60, 0x08, 0x82, 0x0f, 0x00,
   0x1c, 0x00, 0x00, 0x00, 0x00, 0x00, 0x00, 0x00, 0x00, 0x00, 0x00, 0x00,
   0x00, 0x00, 0x00, 0x00, 0x00, 0x00, 0x00, 0x00, 0x20, 0xe0, 0x08, 0x82,
   0x0b, 0x00, 0x70, 0x00, 0x00, 0x00, 0x00, 0x00, 0x00, 0x00, 0x00, 0x00,
   0x00, 0x00, 0x00, 0x00, 0x00, 0x00, 0x00, 0x00, 0x00, 0x00, 0x10, 0xe0,
   0x18, 0x82, 0x0f, 0x00, 0xc0, 0x01, 0x00, 0x00, 0x00, 0x00, 0x00, 0x00,
   0x00, 0x00, 0x00, 0x00, 0x00, 0x00, 0x00, 0x00, 0x00, 0x00, 0x00, 0x00,
   0x08, 0xe8, 0x11, 0x82, 0x0f, 0x00, 0x00, 0x00, 0x00, 0x00, 0x00, 0x00,
   0x00, 0x00, 0x00, 0x00, 0x00, 0x00, 0x00, 0x00, 0x00, 0x00, 0x00, 0x00,
   0x00, 0x00, 0x06, 0xd1, 0x11, 0x82, 0x17, 0x00, 0x00, 0x00, 0x00, 0x00,
   0x00, 0x00, 0x00, 0x00, 0x00, 0x00, 0x00, 0x00, 0x00, 0x00, 0x00, 0x00,
   0x00, 0x00, 0x00, 0x00, 0x06, 0xf2, 0x72, 0x82, 0x17, 0x00, 0x00, 0x00,
   0x00, 0x00, 0x00, 0x00, 0x00, 0x00, 0x00, 0x00, 0x00, 0x00, 0x00, 0x00,
   0x00, 0x00, 0x00, 0x00, 0x00, 0x00, 0x07, 0xe4, 0x63, 0x82, 0x1f, 0x00,
   0x00, 0x00, 0x00, 0x00, 0x00, 0x00, 0x00, 0x00, 0x00, 0x00, 0x00, 0x00,
   0x00, 0x00, 0x00, 0x00, 0x00, 0x00, 0x00, 0x00, 0x41, 0xf8, 0x53, 0x04,
   0x17, 0x00, 0x00, 0x00, 0x00, 0x00, 0x00, 0x00, 0x00, 0x00, 0x00, 0x00,
   0x00, 0x00, 0x00, 0x00, 0x00, 0x80, 0x03, 0x00, 0x00, 0x80, 0x00, 0xe8,
   0x4d, 0x06, 0x1f, 0x00, 0x00, 0x00, 0x00, 0x00, 0x00, 0x00, 0x00, 0x00,
   0x00, 0x00, 0x00, 0x00, 0x00, 0x00, 0x00, 0x3f, 0x0f, 0x00, 0x00, 0x80,
   0x80, 0xf8, 0x86, 0x04, 0x17, 0x00, 0x00, 0x00, 0x00, 0x00, 0x00, 0x00,
   0x00, 0x00, 0x00, 0x00, 0x00, 0x00, 0x00, 0x00, 0xfc, 0xe0, 0xf9, 0x01,
   0x00, 0x40, 0x10, 0xf3, 0x93, 0x04, 0x1f, 0x00, 0x00, 0x00, 0x00, 0x00,
   0x00, 0x00, 0x00, 0x00, 0x00, 0x00, 0x00, 0x00, 0x00, 0x80, 0x0b, 0x00,
   0x00, 0x03, 0x00, 0x40, 0x00, 0xf6, 0x0b, 0x05, 0x17, 0x00, 0x00, 0x00,
   0x00, 0x00, 0x00, 0x00, 0x00, 0x00, 0x00, 0x00, 0x00, 0x00, 0x00, 0x80,
   0x07, 0x80, 0x00, 0x0c, 0x00, 0x40, 0x20, 0xfc, 0x0b, 0x05, 0x3f, 0x00,
   0x00, 0x00, 0x00, 0x00, 0x00, 0x00, 0x00, 0x00, 0x00, 0x00, 0x00, 0x00,
   0x00, 0x70, 0x81, 0x00, 0x00, 0x18, 0x00, 0x40, 0x42, 0xf0, 0x27, 0x05,
   0x2f, 0x00, 0x00, 0x00, 0x00, 0x00, 0x00, 0x00, 0x00, 0x00, 0x00, 0x00,
   0x00, 0x00, 0x00, 0x0e, 0x08, 0x02, 0x03, 0xe0, 0x00, 0x30, 0xc0, 0xf8,
   0x27, 0x09, 0x2e, 0x00, 0x00, 0x00, 0x00, 0x00, 0x00, 0x00, 0x00, 0x00,
   0x00, 0x00, 0x00, 0x00, 0xa0, 0x01, 0x08, 0x08, 0x04, 0xc1, 0x01, 0x70,
   0x84, 0xfb, 0x17, 0x09, 0x2e, 0x00, 0x00, 0x00, 0x00, 0x00, 0x00, 0x00,
   0x00, 0x00, 0x00, 0x00, 0x00, 0x00, 0xe0, 0x00, 0x20, 0x18, 0x0c, 0x86,
   0x03, 0x60, 0x08, 0xf6, 0x1b, 0x0d, 0x2e, 0x00, 0x00, 0x00, 0x00, 0x00,
   0x00, 0x00, 0x00, 0x00, 0x00, 0x00, 0x00, 0x00, 0xc0, 0x00, 0x41, 0x10,
   0x18, 0x84, 0x04, 0x10, 0x18, 0xfc, 0x09, 0x0b, 0x2e, 0x00, 0x00, 0x00,
   0x00, 0x00, 0x00, 0x00, 0x00, 0x00, 0x00, 0x00, 0x00, 0x00, 0x30, 0x10,
   0x82, 0x61, 0x10, 0x18, 0x18, 0x20, 0x30, 0xf4, 0x4f, 0x0b, 0x3e, 0x00,
   0x00, 0x00, 0x00, 0x00, 0x00, 0x00, 0x00, 0x00, 0x00, 0x00, 0x00, 0x00,
   0x0c, 0x22, 0x0c, 0x41, 0x30, 0x10, 0x30, 0x10, 0x60, 0xfc, 0x47, 0x0a,
   0x6e, 0x00, 0x00, 0x00, 0x00, 0x00, 0x00, 0x00, 0x00, 0x00, 0x00, 0x00,
   0x00, 0x00, 0x06, 0xc4, 0x5a, 0xc7, 0x60, 0x30, 0x24, 0x10, 0xc1, 0xf5,
   0x37, 0x09, 0x5c, 0x00, 0x00, 0x00, 0x00, 0x00, 0x04, 0x00, 0x00, 0x00,
   0x00, 0x00, 0x00, 0x00, 0x81, 0xd4, 0x6d, 0xfd, 0x63, 0x30, 0xc8, 0x10,
   0x82, 0xff, 0x13, 0x1a, 0x3e, 0x00, 0x00, 0x00, 0x00, 0x00, 0x0c, 0x00,
   0x00, 0x00, 0x00, 0x00, 0x00, 0x80, 0xa0, 0xff, 0xff, 0x57, 0xff, 0x61,
   0x98, 0x10, 0x04, 0xf7, 0x1b, 0x12, 0x5c, 0x00, 0x00, 0x00, 0x00, 0x00,
   0x16, 0x00, 0x00, 0x00, 0x00, 0x00, 0x00, 0xe0, 0x01, 0xe8, 0xfd, 0xff,
   0xcb, 0xd7, 0x10, 0x31, 0x0c, 0xfe, 0x0d, 0x12, 0x5c, 0x00, 0x00, 0x00,
   0x00, 0x80, 0x12, 0x00, 0x00, 0x00, 0x00, 0x00, 0x00, 0x80, 0x7d, 0x10,
   0xfe, 0xff, 0x7f, 0xfd, 0x33, 0x23, 0x18, 0xfa, 0x6f, 0x11, 0x7c, 0x00,
   0x00, 0x00, 0x00, 0xc0, 0x31, 0x00, 0x00, 0x00, 0x00, 0x00, 0x00, 0x00,
   0x20, 0x80, 0xe3, 0xff, 0xff, 0xd7, 0x3f, 0x22, 0x30, 0xfe, 0x27, 0x11,
   0x5c, 0x00, 0x00, 0x00, 0x00, 0xc0, 0x21, 0x00, 0x00, 0x00, 0x00, 0x00,
   0x00, 0x00, 0xf8, 0x01, 0x78, 0xfd, 0xff, 0x7f, 0x7c, 0x44, 0xe0, 0xfa,
   0xb3, 0x11, 0x7c, 0x00, 0x00, 0x00, 0x00, 0x20, 0xe2, 0x01, 0x00, 0x00,
   0x00, 0x00, 0x00, 0x00, 0x00, 0x17, 0x82, 0x5f, 0xff, 0xff, 0xef, 0x74,
   0x80, 0xff, 0x99, 0x30, 0x7c, 0x00, 0x00, 0x00, 0x00, 0x10, 0xc3, 0x00,
   0x00, 0x00, 0x00, 0x00, 0x00, 0x00, 0x00, 0xf8, 0x43, 0xc0, 0xff, 0xff,
   0xbf, 0x69, 0x80, 0xfb, 0x4d, 0x10, 0xb8, 0x00, 0x00, 0x00, 0x00, 0x18,
   0x8b, 0x01, 0x00, 0x00, 0x00, 0x00, 0x00, 0x00, 0x00, 0x80, 0x03, 0xfc,
   0xe3, 0xff, 0xff, 0xc8, 0x04, 0xfb, 0xef, 0x10, 0xbc, 0x00, 0x00, 0x00,
   0x00, 0x1c, 0x03, 0x01, 0x00, 0x00, 0x00, 0x00, 0x00, 0x00, 0x00, 0x00,
   0x1e, 0x00, 0xfc, 0xef, 0x1f, 0xb4, 0x10, 0xfb, 0x67, 0x10, 0xf8, 0x07,
   0x00, 0x00, 0x00, 0x4c, 0x13, 0x01, 0x00, 0x00, 0x00, 0x00, 0x00, 0x00,
   0x00, 0x00, 0xb0, 0x02, 0x1f, 0xf8, 0x03, 0xfb, 0x71, 0xff, 0x33, 0x20,
   0x38, 0x34, 0x00, 0x00, 0x00, 0x8c, 0x0b, 0x02, 0x00, 0x00, 0x00, 0x00,
   0x00, 0x00, 0x00, 0x00, 0x80, 0x7f, 0x80, 0x2f, 0xe0, 0xa0, 0xc3, 0xfb,
   0x19, 0x20, 0xf8, 0xef, 0x00, 0x00, 0x00, 0xa2, 0x07, 0x01, 0x00, 0x00,
   0x00, 0x00, 0x00, 0x00, 0x00, 0x00, 0x00, 0xe0, 0x00, 0x10, 0x38, 0xc0,
   0x87, 0xff, 0x04, 0x20, 0xf8, 0x3f, 0x01, 0x00, 0x00, 0xe3, 0x23, 0x02,
   0x00, 0x00, 0x00, 0x00, 0x00, 0x00, 0x00, 0x00, 0x00, 0xb0, 0x7f, 0xff,
   0x07, 0x00, 0x0f, 0x7d, 0x06, 0x20, 0xf8, 0xdf, 0x07, 0x00, 0x00, 0xc1,
   0x11, 0x03, 0x00, 0x00, 0x00, 0x00, 0x00, 0x00, 0x00, 0x00, 0x00, 0x00,
   0x40, 0x18, 0x00, 0x00, 0x1a, 0x9f, 0x01, 0x20, 0xb8, 0xb7, 0x00, 0x00,
   0x00, 0xd1, 0x0f, 0x06, 0x00, 0x00, 0x00, 0x00, 0x00, 0x00, 0x00, 0x00,
   0x00, 0x00, 0x00, 0x00, 0x00, 0x02, 0x74, 0xd4, 0x00, 0x20, 0xf8, 0x0f,
   0x00, 0x00, 0x80, 0xd0, 0x01, 0x06, 0x00, 0x00, 0x00, 0x00, 0x00, 0x00,
   0x00, 0x00, 0x00, 0x00, 0x00, 0x00, 0xe0, 0x2f, 0xf8, 0x3c, 0x00, 0x20,
   0x78, 0x09, 0x00, 0x00, 0xc0, 0xf4, 0x42, 0x04, 0x00, 0x00, 0x00, 0x00,
   0x00, 0x00, 0x00, 0x00, 0x00, 0x00, 0x00, 0x00, 0x18, 0xf6, 0xd1, 0x03,
   0x00, 0x40, 0xf0, 0x07, 0x00, 0x00, 0xe0, 0xe8, 0x39, 0x04, 0x00, 0x00,
   0x00, 0x00, 0x00, 0x00, 0x00, 0x00, 0x00, 0x00, 0x00, 0xe0, 0x0f, 0x00,
   0x46, 0x07, 0x00, 0x40, 0x70, 0x02, 0x00, 0x00, 0xc0, 0xfa, 0x07, 0x04,
   0x00, 0x00, 0x00, 0x00, 0x00, 0x00, 0x00, 0x00, 0x00, 0x00, 0x00, 0xc0,
   0x01, 0x50, 0xd8, 0x04, 0x00, 0x40, 0x70, 0x02, 0x00, 0x00, 0x20, 0xea,
   0x03, 0x05, 0x00, 0x00, 0x00, 0x00, 0x00, 0x00, 0x00, 0x00, 0x00, 0x00,
   0x00, 0x38, 0x50, 0xc0, 0xa2, 0x04, 0x00, 0x40, 0xf0, 0x01, 0x00, 0x00,
   0x20, 0x7a, 0x41, 0x04, 0x00, 0x00, 0x00, 0x00, 0x00, 0x00, 0x00, 0x00,
   0x00, 0x00, 0x00, 0x04, 0x80, 0x03, 0x47, 0x09, 0x00, 0x40, 0xf0, 0x00,
   0x00, 0x00, 0x20, 0xfe, 0x31, 0x08, 0x00, 0x00, 0x00, 0x00, 0x00, 0x00,
   0x00, 0x00, 0x00, 0x00, 0x00, 0x86, 0x00, 0x06, 0x9e, 0x37, 0x00, 0x40,
   0xf0, 0x01, 0x00, 0x00, 0x90, 0x76, 0x0f, 0x04, 0x00, 0x00, 0x00, 0x00,
   0x00, 0x00, 0x00, 0x00, 0x00, 0x00, 0x00, 0x01, 0x07, 0xbc, 0xaf, 0x2c,
   0x00, 0x40, 0xf8, 0x03, 0x01, 0x00, 0x90, 0xf4, 0x03, 0x04, 0x00, 0x00,
   0x00, 0x00, 0x00, 0x00, 0x00, 0x00, 0x00, 0x00, 0xc0, 0x00, 0x18, 0xf0,
   0xb1, 0x58, 0x00, 0x40, 0xf0, 0x7e, 0x03, 0x00, 0x90, 0xbd, 0x00, 0x1c,
   0x00, 0x00, 0x00, 0x00, 0x00, 0x00, 0x00, 0x00, 0x00, 0x00, 0x60, 0x00,
   0x70, 0x70, 0xbe, 0x90, 0x00, 0x40, 0xf0, 0x89, 0x3f, 0x00, 0x10, 0xfd,
   0x40, 0x0a, 0x00, 0x00, 0x00, 0x00, 0x00, 0x00, 0x00, 0x00, 0x00, 0x00,
   0xf0, 0x30, 0xe0, 0xde, 0x9f, 0xa0, 0x01, 0xc0, 0xf0, 0x0a, 0xe0, 0x01,
   0x10, 0xbd, 0x70, 0x08, 0x00, 0x00, 0x00, 0x00, 0x00, 0x00, 0x00, 0x00,
   0x00, 0x00, 0x30, 0xc0, 0x80, 0xf7, 0x9f, 0x40, 0x03, 0x80, 0xf0, 0x1a,
   0x80, 0x03, 0x10, 0xff, 0x0e, 0x04, 0x00, 0x00, 0x00, 0x00, 0x00, 0x00,
   0x00, 0x00, 0x00, 0x00, 0x08, 0x00, 0xc3, 0xfd, 0x5f, 0x80, 0x02, 0x40,
   0xf0, 0x5e, 0x00, 0x0c, 0x5c, 0xdf, 0x03, 0x04, 0x00, 0x00, 0x00, 0x00,
   0x00, 0x00, 0x00, 0x00, 0x00, 0x00, 0x0c, 0x06, 0x7e, 0xff, 0x5f, 0x80,
   0x05, 0x80, 0xe0, 0xc3, 0x04, 0xb1, 0x58, 0xff, 0x00, 0x04, 0x00, 0x00,
   0x00, 0x00, 0x00, 0x00, 0x00, 0x00, 0x00, 0x00, 0x02, 0x30, 0xce, 0xff,
   0x4f, 0x00, 0x0d, 0x00, 0xf0, 0xcb, 0x11, 0x60, 0x58, 0x6e, 0x00, 0x04,
   0x00, 0x00, 0x00, 0x00, 0x00, 0x00, 0x00, 0x00, 0x00, 0x00, 0x02, 0xe0,
   0xf5, 0xff, 0x67, 0x00, 0x1a, 0x80, 0xe0, 0xce, 0x83, 0xc0, 0xd0, 0x3e,
   0x30, 0x06, 0x00, 0x00, 0x00, 0x00, 0x00, 0x00, 0x00, 0x00, 0x00, 0x80,
   0x81, 0xc2, 0xfe, 0x7f, 0x27, 0x00, 0x16, 0x80, 0xf0, 0xc9, 0x17, 0x40,
   0x91, 0x2f, 0x0e, 0x01, 0x00, 0x00, 0x00, 0x00 };
